<svg width="51" height="51" viewBox="0 0 51 51" fill="none" xmlns="http://www.w3.org/2000/svg">
<path d="M28.215 9.51013H46.965V15.7601H28.215V9.51013Z" fill="#03624C"/>
<path d="M28.215 34.5101H46.965V40.7601H28.215V34.5101Z" fill="#03624C"/>
<path d="M15.715 3.26013H9.46503V9.51013H3.21503V15.7601H9.46503V22.0101H15.715V15.7601H21.965V9.51013H15.715V3.26013Z" fill="#03624C"/>
<path d="M21.965 32.6351L17.59 28.2601L12.59 33.2601L7.59003 28.2601L3.21503 32.6351L8.21503 37.6351L3.21503 42.6351L7.59003 47.0101L12.59 42.0101L17.59 47.0101L21.965 42.6351L16.965 37.6351L21.965 32.6351Z" fill="#03624C"/>
<path d="M40.715 45.4476C40.715 47.1726 39.315 48.5726 37.59 48.5726C35.865 48.5726 34.465 47.1726 34.465 45.4476C34.465 43.7226 35.865 42.3226 37.59 42.3226C39.315 42.3226 40.715 43.7226 40.715 45.4476Z" fill="#03624C"/>
<path d="M40.715 29.8226C40.715 31.5476 39.315 32.9476 37.59 32.9476C35.865 32.9476 34.465 31.5476 34.465 29.8226C34.465 28.0976 35.865 26.6976 37.59 26.6976C39.315 26.6976 40.715 28.0976 40.715 29.8226Z" fill="#03624C"/>
</svg>
