<svg width="51" height="51" viewBox="0 0 51 51" fill="none" xmlns="http://www.w3.org/2000/svg">
<g clip-path="url(#clip0_26_2054)">
<path d="M43.2721 0.360229H17.3223C14.134 0.360229 11.5498 2.94536 11.5498 6.13474V10.7761H6.90791C3.71804 10.7761 1.13339 13.3607 1.13339 16.5506V34.1658C1.13339 37.3557 3.71804 39.9403 6.90791 39.9403H7.38287V48.2729C7.38287 50.1288 9.62672 51.0582 10.939 49.7459L20.7446 39.9403H32.8556C36.0455 39.9403 38.6301 37.3557 38.6301 34.1658V29.5245H43.272C46.4619 29.5245 49.0466 26.9398 49.0466 23.75V6.13474C49.0467 2.94488 46.462 0.360229 43.2721 0.360229ZM34.4639 34.1657C34.4639 35.0546 33.7446 35.7739 32.8557 35.7739H19.8818C19.3293 35.7739 18.7995 35.9934 18.4088 36.384L11.5492 43.2435V37.8571C11.5492 36.7066 10.6166 35.774 9.46609 35.774H6.90791C6.01902 35.774 5.29974 35.0547 5.29974 34.1658V16.5506C5.29974 15.6617 6.01902 14.9424 6.90791 14.9424H13.6329H32.8557C33.7446 14.9424 34.4639 15.6617 34.4639 16.5506V34.1657ZM44.8803 23.75C44.8803 24.6389 44.161 25.3581 43.2721 25.3581H38.6308V16.5506C38.6308 13.3607 36.0462 10.7761 32.8563 10.7761H32.8557H15.7162V6.13474C15.7162 5.24595 16.4353 4.52658 17.3223 4.52658H43.2721C44.161 4.52658 44.8803 5.24585 44.8803 6.13474V23.75Z" fill="#22C55E"/>
<path d="M19.8818 23.275C18.7319 23.275 17.7987 24.2082 17.7987 25.3581C17.7987 26.5081 18.7319 27.4413 19.8818 27.4413C21.0317 27.4413 21.9649 26.5081 21.9649 25.3581C21.9649 24.2082 21.0317 23.275 19.8818 23.275Z" fill="#22C55E"/>
<path d="M28.2144 23.275C27.0645 23.275 26.1313 24.2082 26.1313 25.3581C26.1313 26.5081 27.0645 27.4413 28.2144 27.4413C29.3643 27.4413 30.2975 26.5081 30.2975 25.3581C30.2975 24.2082 29.3643 23.275 28.2144 23.275Z" fill="#22C55E"/>
<path d="M11.5492 23.275C10.3993 23.275 9.46609 24.2082 9.46609 25.3581C9.46609 26.5081 10.3993 27.4413 11.5492 27.4413C12.6991 27.4413 13.6323 26.5081 13.6323 25.3581C13.6323 24.2082 12.6991 23.275 11.5492 23.275Z" fill="#22C55E"/>
</g>
<defs>
<clipPath id="clip0_26_2054">
<rect width="50" height="50" fill="white" transform="translate(0.0900269 0.360229)"/>
</clipPath>
</defs>
</svg>
