<svg width="160" height="90" viewBox="0 0 160 90" fill="none" xmlns="http://www.w3.org/2000/svg">
<path d="M69.978 49.2434C70.0968 49.0664 70.5604 48.6181 71.024 48.2406C71.4756 47.8512 71.8679 47.5445 71.8798 47.5445C71.9035 47.5445 72.0581 47.6035 72.2363 47.6743C72.4265 47.7451 73.0803 47.922 73.6983 48.0754C74.3164 48.2406 75.3624 48.4411 76.0162 48.5355C76.6699 48.6299 77.7872 48.7479 78.5122 48.795C79.2492 48.8304 80.5448 48.8068 81.4838 48.7361C82.399 48.6653 83.7659 48.4765 84.5148 48.3113C85.2636 48.158 86.2264 47.922 87.4269 47.5563L87.7835 47.8276C87.9736 47.981 88.4491 48.4057 88.8176 48.7714C89.1979 49.1372 89.507 49.4675 89.507 49.5265C89.5188 49.5737 89.2098 49.7271 88.8294 49.8686C88.4491 50.0102 87.6884 50.258 87.1297 50.4231C86.5711 50.5883 85.5845 50.8242 84.9308 50.954C84.277 51.0838 83.1241 51.249 82.3753 51.3315C81.5313 51.4141 80.1407 51.4495 78.75 51.4023C77.5138 51.3669 75.9805 51.249 75.3624 51.1428C74.7443 51.0366 73.8053 50.8478 73.2823 50.7181C72.7593 50.5883 71.7609 50.3051 71.0596 50.081C70.3464 49.8568 69.7759 49.6445 69.7759 49.6091C69.7759 49.5737 69.871 49.4085 69.978 49.2434Z" fill="#22CC55"/>
<path d="M72.3433 0.920216C72.4384 0.731454 72.7118 0.460108 72.9614 0.306739H72.9495C73.1991 0.141572 73.5795 0.0117976 73.7816 0.0117976C73.9955 0 74.4234 0.141572 74.7325 0.306739C75.0534 0.483703 75.5407 0.790442 75.8379 0.979204C76.135 1.17976 76.7769 1.66347 77.2642 2.06459C77.7515 2.46571 78.4766 3.14997 79.582 4.34153L80.8301 3.14997C81.5195 2.4893 82.5179 1.65167 83.029 1.28594C83.552 0.920216 84.2295 0.483703 84.5385 0.306739C84.8595 0.141572 85.2755 0 85.4657 0C85.6558 0 86.0362 0.129774 86.2977 0.294941C86.5592 0.460108 86.8445 0.731454 86.9396 0.920216C87.0228 1.09718 87.1535 1.72246 87.2248 2.30054C87.2961 2.89042 87.4625 3.84603 87.5933 4.42412C87.7359 5.014 87.8904 5.55669 87.938 5.65107C88.0093 5.76905 88.2114 5.73365 88.9959 5.43871C89.5426 5.23815 90.5292 4.94321 91.1948 4.77804C91.8723 4.61288 92.9777 4.42412 93.6671 4.35333C94.3565 4.28254 95.3669 4.24715 95.9255 4.29434C96.4842 4.32973 97.2568 4.44771 97.649 4.55389C98.0412 4.66007 98.4691 4.81344 98.5999 4.90782C98.7306 5.0022 98.9327 5.22635 99.0397 5.40332C99.1585 5.58028 99.2536 5.94601 99.2536 6.22915C99.2536 6.5005 99.1942 6.84263 99.1229 6.996C99.0397 7.13757 98.5405 7.68026 98.0056 8.19936C97.4588 8.71846 96.8289 9.44991 96.5911 9.82743C96.3534 10.1932 96.1632 10.5353 96.1632 10.5943C96.1513 10.6415 96.5674 10.8892 97.0785 11.1488C97.5896 11.4201 98.3265 11.8448 98.7188 12.0926C99.111 12.3521 99.6578 12.7768 99.9311 13.0364C100.288 13.3667 100.442 13.6027 100.442 13.8386C100.442 14.0274 100.323 14.2751 100.145 14.4521C99.9906 14.6173 99.741 14.7471 99.5864 14.7471C99.4319 14.7471 98.8852 14.4285 98.3622 14.0274C97.8392 13.6381 96.8526 13.0482 96.1751 12.7061C95.4976 12.3639 94.8082 11.951 94.6537 11.774C94.5111 11.5853 94.3446 11.2432 94.309 11.0072C94.2614 10.7083 94.309 10.3819 94.4516 10.028C94.5705 9.73305 94.9152 9.11958 95.2242 8.67127C95.5333 8.22296 96.1395 7.5033 96.5674 7.07858C97.0071 6.65387 97.3518 6.29994 97.3281 6.27634C97.3043 6.26455 96.8051 6.18196 96.2227 6.11118C95.4144 6.005 94.832 6.005 93.8454 6.11118C93.1204 6.18196 92.11 6.35893 91.587 6.4887C91.0641 6.61848 90.0775 6.93701 89.3881 7.20836C88.3421 7.62128 88.0687 7.68026 87.6646 7.60948C87.3675 7.55049 87.0465 7.38532 86.8207 7.14937C86.5711 6.90162 86.3452 6.4769 86.1432 5.83983C85.9768 5.32074 85.7628 4.44771 85.6558 3.89322C85.5489 3.33873 85.4657 2.70166 85.4657 2.4775C85.4657 2.25335 85.4419 2.02919 85.4062 1.982C85.3706 1.92302 85.121 2.02919 84.8357 2.20616C84.5623 2.37133 84.0156 2.76065 83.6233 3.05559C83.2311 3.35053 82.3634 4.12917 81.6859 4.80164C80.9014 5.59208 80.3427 6.05219 80.0812 6.12298C79.8554 6.19376 79.5226 6.19376 79.2492 6.12298C78.9164 6.04039 78.5123 5.72186 77.5851 4.80164C76.9195 4.12917 76.0518 3.35053 75.6596 3.05559C75.2673 2.76065 74.7206 2.37133 74.4353 2.20616C74.1619 2.02919 73.9123 1.92302 73.8766 1.982C73.841 2.02919 73.8172 2.25335 73.8172 2.4775C73.8172 2.70166 73.734 3.33873 73.627 3.89322C73.5201 4.44771 73.3061 5.32074 73.1397 5.83983C72.9376 6.4769 72.7118 6.90162 72.4622 7.14937C72.2364 7.38532 71.9154 7.55049 71.6183 7.60948C71.2141 7.68026 70.9408 7.62128 69.8948 7.20836C69.2054 6.93701 68.2188 6.61848 67.6958 6.4887C67.1728 6.35893 66.1625 6.18196 65.4375 6.11118C64.4509 6.005 63.8685 6.005 63.0602 6.11118C62.4659 6.18196 61.9786 6.26455 61.9548 6.27634C61.931 6.29994 62.2757 6.65387 62.7155 7.07858C63.1434 7.5033 63.7496 8.22296 64.0587 8.67127C64.3677 9.11958 64.7124 9.73305 64.8313 10.028C64.9739 10.3819 65.0215 10.7083 64.9739 11.0072C64.9382 11.2432 64.76 11.6089 64.5698 11.8094C64.3915 12.01 63.8209 12.3757 63.298 12.6117C62.775 12.8476 62.0024 13.2841 61.5745 13.5673C61.1466 13.8504 60.4928 14.3813 60.1006 14.7353C59.7202 15.101 59.1735 15.7145 58.9001 16.1038C58.6148 16.4931 58.1988 17.2128 57.9611 17.6965C57.7352 18.1802 57.4262 19.065 57.2835 19.6431C57.0577 20.5161 57.0102 21.0234 57.0102 22.5335C57.0102 23.8666 57.0696 24.6335 57.2241 25.3649C57.343 25.9194 57.5569 26.7099 57.7115 27.1346C57.8541 27.5593 58.0086 27.984 58.068 28.0784C58.1275 28.2082 58.4722 27.6183 59.2567 26.0728C59.851 24.8694 60.683 23.3357 61.0871 22.6515C61.5031 21.9672 62.252 20.8582 62.7512 20.174C63.2385 19.4897 64.0468 18.5223 64.546 18.0268C65.0333 17.5313 65.5801 17.0712 65.7584 17.0004C65.9486 16.9296 66.3289 16.8706 66.6261 16.8706C67.0421 16.8706 67.2442 16.9414 67.5413 17.201C67.7434 17.3779 68.0762 17.897 68.2901 18.3453C68.4922 18.7936 68.8488 19.4425 69.0746 19.761C69.2886 20.0914 69.764 20.6341 70.0968 20.9762C70.4415 21.3065 70.7625 21.5897 70.81 21.5897C70.8694 21.5897 71.024 21.1768 71.1785 20.6813C71.333 20.174 71.6539 19.3127 71.8798 18.7582C72.1175 18.2038 72.5335 17.3897 72.795 16.9414C73.0684 16.5049 73.627 15.8088 74.0549 15.4077C74.6017 14.8886 75.0415 14.5937 75.5407 14.4049C76.135 14.1808 76.4203 14.1454 77.2048 14.1808C77.9298 14.2162 78.3221 14.3105 79.582 14.9004L80.3546 14.5701C80.9251 14.3223 81.3768 14.2162 82.0781 14.1808C82.8507 14.1454 83.1598 14.1808 83.7422 14.4049C84.3008 14.6055 84.6455 14.8532 85.3587 15.5611C86.1194 16.3161 86.369 16.6701 86.9396 17.8144C87.3199 18.5577 87.7835 19.7021 87.9855 20.3509C88.1876 20.9998 88.3778 21.5425 88.4016 21.5661C88.4253 21.5779 88.6036 21.4717 88.8057 21.3301C89.0077 21.1768 89.4356 20.7403 89.7566 20.3509C90.0894 19.9616 90.5886 19.1594 90.862 18.5813C91.1473 18.0032 91.5514 17.3779 91.7535 17.201C92.0387 16.9414 92.2408 16.8706 92.6568 16.8706C92.954 16.8706 93.3343 16.9296 93.5126 17.0004C93.7028 17.0712 94.2495 17.5313 94.7369 18.0268C95.2242 18.5341 96.0325 19.5015 96.5317 20.174C97.0309 20.8582 97.7797 21.9672 98.1958 22.6515C98.5999 23.3357 99.4319 24.8694 100.038 26.0728C100.965 27.9368 101.144 28.22 101.251 28.0194C101.31 27.8896 101.5 27.3587 101.667 26.8396C101.821 26.3205 102.035 25.4947 102.118 25.011C102.213 24.5155 102.273 23.3829 102.273 22.4155C102.261 21.2593 102.201 20.4335 102.071 19.879C101.952 19.4307 101.702 18.6285 101.5 18.1094C101.167 17.2481 101.144 17.1302 101.286 16.8116C101.381 16.6229 101.607 16.4105 101.785 16.3397C102.047 16.2454 102.19 16.2689 102.439 16.3987C102.617 16.5049 102.855 16.7644 102.962 16.9886C103.081 17.2128 103.307 17.8262 103.473 18.3453C103.652 18.8644 103.877 19.8908 104.186 21.9672L105.018 22.2857C105.482 22.4627 106.171 22.8048 106.564 23.0526C106.956 23.3121 107.574 23.8194 107.931 24.1852C108.287 24.5627 108.763 25.1526 108.965 25.4947C109.179 25.8486 109.5 26.5329 109.678 27.0166C109.904 27.6419 110.011 28.2082 110.046 28.9632C110.082 29.6947 110.034 30.2845 109.892 30.8508C109.785 31.3109 109.523 32.066 109.297 32.5379C109.012 33.116 108.608 33.6705 108.014 34.2839C107.55 34.7794 106.837 35.3811 106.445 35.6171C106.053 35.853 105.458 36.1716 105.137 36.3013C104.804 36.4429 104.127 36.6317 103.616 36.7379C103.117 36.844 102.344 36.9266 101.892 36.9266C101.453 36.9148 100.87 36.8794 100.062 36.7496L99.7053 37.4575C99.5032 37.8468 99.0753 38.5665 98.7425 39.0502C98.4216 39.5339 97.8748 40.2771 97.5301 40.7019C97.1735 41.1266 96.4485 41.8934 95.9017 42.4125C95.3669 42.9434 94.7012 43.5333 94.4397 43.7457C94.0237 44.076 93.9999 44.1232 94.2258 44.1232C94.3803 44.1232 94.9984 43.9462 95.5927 43.7221C96.1989 43.5097 97.6015 42.9316 98.7188 42.4361C100.098 41.8344 101.001 41.5041 101.536 41.4215C102.094 41.3271 102.594 41.3271 103.14 41.4097C103.616 41.4805 104.317 41.7047 104.84 41.9642C105.411 42.2356 105.957 42.6249 106.35 43.026C106.742 43.4153 107.146 44.0052 107.419 44.5597C107.824 45.3737 107.871 45.5861 107.919 46.6007C107.942 47.4147 107.907 47.9102 107.752 48.4293C107.645 48.8186 107.443 49.3495 107.301 49.6091C107.17 49.8686 106.742 50.4113 106.338 50.8242C105.743 51.4377 105.375 51.6855 104.246 52.2282C103.497 52.5939 102.047 53.2192 101.037 53.6203C100.026 54.0214 98.7069 54.5051 98.1244 54.6821C97.542 54.859 96.4723 55.154 94.4397 55.6495L94.3446 56.3455C94.2971 56.7231 94.1188 57.2657 93.9643 57.5371C93.7979 57.8202 93.4888 58.1742 93.2749 58.3275C93.0728 58.4809 92.6806 58.6933 92.4191 58.7994C91.9912 58.9764 90.9333 59 73.0446 59L72.7118 58.6697C72.5335 58.4927 72.379 58.2332 72.379 58.1034C72.379 57.9736 72.486 57.7259 72.8663 57.2186H82.1019C87.8548 57.2186 91.5157 57.1714 91.7891 57.1006C92.11 57.018 92.2883 56.8764 92.4191 56.6287C92.5142 56.4399 92.5974 56.1568 92.5974 56.0034C92.5974 55.8618 92.4547 55.2366 92.2883 54.6231C92.1219 54.0096 91.801 53.1012 91.5752 52.6175C91.3493 52.1338 90.8739 51.3079 90.5292 50.7888C90.1726 50.2697 89.5189 49.4793 89.0791 49.0192C88.6274 48.5591 88.0687 48.0518 87.4269 47.5563L86.6543 47.7922C86.2264 47.922 85.2636 48.158 84.5148 48.3113C83.7659 48.4765 82.399 48.6653 81.4838 48.7361C80.5448 48.8068 79.2492 48.8304 78.5123 48.795C77.7872 48.7479 76.6699 48.6299 76.0162 48.5355C75.3624 48.4411 74.3164 48.2406 73.6984 48.0754C73.0803 47.922 72.4028 47.7451 72.2126 47.6743C71.9035 47.5563 71.8085 47.5799 71.44 47.863C71.2141 48.04 70.6555 48.5591 70.2038 49.0192C69.764 49.4675 69.1103 50.2697 68.7537 50.7888C68.409 51.3079 67.9336 52.1338 67.7077 52.6175C67.4819 53.1012 67.161 54.0096 66.9946 54.6231C66.8281 55.2366 66.6855 55.8618 66.6855 56.0034C66.6855 56.1568 66.7687 56.4399 66.8638 56.6287C66.9946 56.8764 67.1728 57.018 67.4819 57.1006C67.7315 57.1596 68.2664 57.2186 68.6705 57.2186C69.2648 57.2186 69.4669 57.2657 69.6571 57.4545C69.7997 57.5961 69.8948 57.8438 69.8948 58.068C69.8948 58.3039 69.7878 58.5635 69.6214 58.7287C69.3956 58.9646 69.241 59 68.3496 59C67.6958 58.9882 67.1728 58.9292 66.8638 58.7994C66.6023 58.6933 66.2101 58.4809 65.9961 58.3275C65.7941 58.1742 65.4731 57.7966 65.2948 57.4781C65.1047 57.1596 64.9501 56.6523 64.8432 55.6495L63.298 55.2601C62.4421 55.0478 61.2416 54.7057 60.6236 54.5051C60.0055 54.2927 58.7931 53.8444 57.9492 53.5023C57.0934 53.1602 55.8334 52.6057 55.1203 52.2753C54.1931 51.8388 53.6464 51.4849 53.0996 50.9776C52.6955 50.6001 52.22 50.0338 52.0417 49.7153C51.8753 49.3967 51.6376 48.8186 51.5306 48.4293C51.3761 47.9102 51.3405 47.4147 51.3642 46.6007C51.4118 45.5625 51.4474 45.3855 51.8753 44.5361C52.1963 43.899 52.5647 43.3799 53.0045 42.9552C53.4087 42.5541 53.9911 42.1648 54.5022 41.9288C54.9539 41.7047 55.6908 41.4805 56.1306 41.4097C56.7011 41.3271 57.1766 41.3271 57.7352 41.4215C58.282 41.5041 59.1972 41.8344 60.5641 42.4361C61.6695 42.9198 63.0959 43.5097 63.714 43.7221C64.3321 43.9462 64.9501 44.1232 65.0809 44.1232C65.2711 44.1232 65.2235 44.0524 64.8432 43.7457C64.5817 43.5333 63.916 42.9434 63.3812 42.4125C62.8344 41.8934 62.1093 41.1266 61.7528 40.7019C61.4081 40.2771 60.8613 39.5339 60.5404 39.0502C60.2075 38.5665 59.7796 37.8468 59.221 36.7496L58.698 36.8322C58.4127 36.8794 57.8303 36.9148 57.3786 36.9266C56.9388 36.9266 56.1662 36.844 55.6551 36.7496C55.1084 36.6435 54.2882 36.3485 53.6107 36.0182C52.6717 35.5699 52.3151 35.3103 51.4593 34.4609C50.6629 33.6705 50.342 33.2458 50.0092 32.5615C49.7834 32.0778 49.4981 31.3345 49.3911 30.9098C49.2366 30.3435 49.2009 29.848 49.2485 29.0222C49.2842 28.3733 49.4149 27.5829 49.5575 27.1346C49.6883 26.7099 49.9973 26.0256 50.2469 25.6127C50.4965 25.1998 50.9958 24.5627 51.3523 24.1852C51.7089 23.8194 52.327 23.3121 52.7193 23.0526C53.1115 22.8048 53.8009 22.4627 55.0965 21.9672L55.1916 21.3301C55.2391 20.988 55.358 20.2683 55.4531 19.7257C55.5482 19.1948 55.7859 18.3217 55.988 17.779C56.1781 17.2481 56.6179 16.3633 56.9626 15.8088C57.3549 15.16 57.9729 14.4167 58.7099 13.6735C59.3399 13.06 60.1719 12.3403 60.5641 12.0926C60.9564 11.833 61.6933 11.4201 62.2044 11.1488C62.7155 10.8892 63.1315 10.6415 63.1197 10.5943C63.1197 10.5353 62.9295 10.1932 62.6918 9.82743C62.454 9.44991 61.8241 8.71846 61.2773 8.19936C60.7424 7.68026 60.2432 7.13757 60.1719 6.996C60.0887 6.84263 60.0293 6.5005 60.0293 6.22915C60.0293 5.94601 60.1243 5.58028 60.2432 5.40332C60.3502 5.22635 60.5522 5.0022 60.683 4.90782C60.8137 4.81344 61.2416 4.66007 61.6339 4.55389C62.0261 4.44771 62.7987 4.32973 63.3574 4.29434C63.916 4.24715 64.9264 4.28254 65.6158 4.35333C66.3052 4.42412 67.4106 4.61288 68.0762 4.77804C68.7537 4.94321 69.7403 5.23815 70.2751 5.43871C71.0715 5.73365 71.2736 5.76905 71.3449 5.65107C71.3924 5.55669 71.547 5.014 71.6896 4.42412C71.8203 3.83423 71.9867 2.89042 72.0581 2.30054C72.1294 1.71066 72.2601 1.09718 72.3433 0.920216Z" fill="black"/>
<path d="M61.9548 6.27638C61.9786 6.26458 62.2876 6.20559 62.6442 6.1466C63.0008 6.08761 63.6189 6.04042 64.0111 6.02863C64.4034 6.02863 65.176 6.07582 65.7346 6.1348C66.2933 6.20559 67.1966 6.37076 67.7553 6.51233C68.3139 6.6421 69.3124 6.97244 71.1785 7.72749L71.2379 9.32017C71.2855 10.5707 71.3568 11.1252 71.5945 11.9156C71.7609 12.4701 72.0343 13.2134 72.1888 13.5673C72.3552 13.9212 72.7237 14.5701 73.5795 15.8089L73.1754 16.3634C72.9495 16.6819 72.5454 17.378 72.272 17.9324C71.9867 18.4869 71.5707 19.5133 71.3449 20.233C71.1072 20.9526 70.9051 21.5543 70.8813 21.5897C70.8694 21.6251 70.6793 21.4953 70.4653 21.3184C70.2514 21.1296 69.8116 20.6813 69.5025 20.3156C69.1816 19.9498 68.6943 19.1594 68.4209 18.5813C68.1356 18.0032 67.7315 17.378 67.5294 17.1892C67.2442 16.9414 67.0421 16.8707 66.6261 16.8707C66.3289 16.8707 65.9486 16.9296 65.7584 17.0004C65.5801 17.0712 65.0333 17.5313 64.546 18.0268C64.0468 18.5223 63.2385 19.4897 62.7512 20.174C62.252 20.8583 61.5031 21.9672 61.0871 22.6515C60.683 23.3358 59.851 24.8695 59.2566 26.0728C58.4722 27.6183 58.1275 28.2082 58.068 28.0784C58.0086 27.984 57.8541 27.5593 57.7114 27.1346C57.5569 26.7099 57.343 25.9194 57.2241 25.365C57.0696 24.6335 57.0102 23.8667 57.0102 22.5335C57.0102 21.0234 57.0577 20.5161 57.2835 19.6431C57.4262 19.065 57.7352 18.1802 57.9611 17.6965C58.1988 17.2128 58.6148 16.4931 58.9001 16.1038C59.1734 15.7145 59.7202 15.101 60.1006 14.7353C60.4928 14.3814 61.1466 13.8505 61.5745 13.5673C62.0024 13.2842 62.775 12.8477 63.2979 12.6117C63.8209 12.3758 64.3915 12.01 64.5698 11.8095C64.7599 11.6089 64.9382 11.2432 64.9739 10.9954C65.0214 10.7044 64.9739 10.382 64.8313 10.028C64.7124 9.73308 64.3677 9.11961 64.0587 8.6713C63.7496 8.22299 63.1434 7.50333 62.7155 7.07862C62.2757 6.6539 61.931 6.29997 61.9548 6.27638Z" fill="#E06E7E"/>
<path d="M73.7934 2.4657C73.7816 2.22974 73.8172 2.01739 73.8648 1.9702C73.9123 1.9348 74.1738 2.04098 74.4472 2.20615C74.7206 2.37132 75.2673 2.76064 75.6596 3.05558C76.0518 3.35052 76.9195 4.12916 77.5851 4.80163C78.3815 5.59207 78.9402 6.05218 79.1898 6.12296C79.4275 6.19375 79.7603 6.19375 80.0218 6.12296C80.3665 6.04038 80.7706 5.72185 81.6859 4.80163C82.3634 4.12916 83.2311 3.35052 83.6233 3.05558C84.0156 2.76064 84.5623 2.37132 84.8357 2.20615C85.121 2.02918 85.3706 1.92301 85.4062 1.9702C85.4419 2.02918 85.4657 2.25334 85.4657 2.47749C85.4657 2.70165 85.5489 3.33872 85.6558 3.89321C85.7628 4.4477 85.9768 5.32073 86.1432 5.83982C86.3452 6.47689 86.5711 6.90161 86.8207 7.14936C87.0465 7.38531 87.3675 7.55048 87.6646 7.60947C88.0687 7.68025 88.3421 7.62127 89.3881 7.20835C90.0775 6.937 91.0641 6.61847 91.587 6.48869C92.11 6.35892 93.1204 6.18195 93.8454 6.11117C94.832 6.00499 95.4144 6.00499 96.2227 6.11117C96.8051 6.18195 97.3043 6.26454 97.3281 6.27633C97.3518 6.29993 97.0071 6.65386 96.5674 7.07857C96.1394 7.50329 95.5333 8.22295 95.2242 8.67126C94.9152 9.11957 94.5705 9.73304 94.4516 10.028C94.309 10.3819 94.2614 10.7044 94.309 10.9954C94.3446 11.2431 94.511 11.5853 94.6537 11.7622C94.8082 11.951 95.4976 12.3639 96.1751 12.706C96.8526 13.0482 97.8392 13.6381 98.3622 14.0274C98.8852 14.4285 99.4081 14.747 99.5151 14.747C99.634 14.747 99.8598 14.6763 100.014 14.6055C100.276 14.4639 100.335 14.4875 100.609 14.806C100.775 15.0066 101.096 15.4077 101.298 15.7262C101.667 16.2453 101.678 16.3043 101.5 16.4931C101.393 16.5993 101.274 16.8116 101.227 16.965C101.179 17.1184 101.286 17.5549 101.5 18.074C101.69 18.5459 101.94 19.3599 102.059 19.879C102.213 20.5515 102.273 21.2947 102.273 22.4745C102.285 23.3829 102.213 24.5273 102.118 25.011C102.035 25.4947 101.821 26.3205 101.667 26.8396C101.5 27.3587 101.31 27.8896 101.251 28.0194C101.144 28.2199 100.965 27.9368 100.038 26.0728C99.4319 24.8694 98.5999 23.3357 98.1958 22.6515C97.7797 21.9672 97.0309 20.8582 96.5317 20.174C96.0325 19.5015 95.2242 18.5341 94.7369 18.0268C94.2495 17.5313 93.7028 17.0712 93.5126 17.0004C93.3343 16.9296 92.954 16.8706 92.6568 16.8706C92.2408 16.8706 92.0387 16.9414 91.7535 17.1892C91.5514 17.3779 91.1473 18.0032 90.862 18.5813C90.5886 19.1594 90.0894 19.9616 89.7566 20.3509C89.4356 20.7402 89.0077 21.1768 88.8057 21.3183C88.6036 21.4717 88.4253 21.5779 88.4015 21.5543C88.3778 21.5425 88.1876 20.9998 87.9855 20.3509C87.7835 19.702 87.3199 18.5577 86.9395 17.8144C86.369 16.6701 86.1194 16.3161 85.3587 15.5611C84.6455 14.8532 84.3008 14.6055 83.7422 14.4049C83.1597 14.1808 82.8507 14.1454 82.0781 14.1808C81.3768 14.2161 80.9251 14.3223 79.582 14.9004L78.8688 14.5701C78.3221 14.3105 77.9298 14.2161 77.2048 14.1808C76.4559 14.1454 76.1112 14.1808 75.6001 14.3695C75.2198 14.5111 74.6611 14.865 73.5795 15.8088L73.1397 15.1954C72.8901 14.8532 72.5216 14.2279 72.3077 13.8032C72.1056 13.3785 71.7847 12.5645 71.6183 11.9746C71.3568 11.137 71.2855 10.5825 71.1666 7.72744L71.6302 7.62127C71.8917 7.57407 72.2601 7.36172 72.4622 7.14936C72.7118 6.90161 72.9376 6.47689 73.1397 5.83982C73.3061 5.32073 73.5201 4.4477 73.627 3.89321C73.734 3.33872 73.8053 2.70165 73.7934 2.4657Z" fill="#E48895"/>
<path d="M67.8741 52.3226C68.2069 51.6737 68.7299 50.7889 69.039 50.3641L69.6095 49.5737L70.7981 49.9866C71.44 50.2108 72.486 50.5175 73.1041 50.6709C73.7221 50.8243 74.7443 51.0366 75.3624 51.1428C75.9805 51.249 77.5019 51.3669 78.75 51.4023C80.1407 51.4495 81.5313 51.4141 82.3753 51.3316C83.1241 51.249 84.2771 51.0838 84.9308 50.954C85.5845 50.8243 86.6305 50.5647 87.2486 50.3877C87.8667 50.199 88.6631 49.9394 89.6258 49.5501L90.2201 50.3523C90.553 50.7889 91.0759 51.6737 91.4088 52.3226C91.7297 52.9714 92.1338 54.0096 92.3002 54.6231C92.4666 55.2366 92.5974 55.8618 92.5974 56.0152C92.5974 56.1568 92.5142 56.4399 92.4191 56.6287C92.2883 56.8764 92.11 57.018 91.801 57.1006C91.5157 57.1714 87.8548 57.2186 72.8663 57.2186L72.6286 57.5489C72.486 57.7259 72.379 57.9382 72.3909 58.0208C72.3909 58.127 72.0818 58.1624 70.0136 58.1624L69.8948 57.8085C69.8235 57.6197 69.6689 57.4073 69.5382 57.3366C69.4075 57.2776 68.9914 57.2186 68.6111 57.2186C68.2426 57.2186 67.7315 57.1596 67.4819 57.1006C67.1728 57.018 66.9946 56.8764 66.8638 56.6287C66.7687 56.4399 66.6855 56.1568 66.6855 56.0152C66.6855 55.8618 66.8163 55.2366 66.9827 54.6231C67.1491 54.0096 67.5532 52.9714 67.8741 52.3226Z" fill="#8CE0DF"/>
<path d="M60.6236 47.6035C60.8732 47.0254 61.1703 46.1524 61.2892 45.6805C61.4556 45.008 61.5507 44.831 61.6933 44.8664C61.7884 44.9018 62.4065 45.126 63.0602 45.3619C63.714 45.5979 64.76 45.9164 65.378 46.0816C65.9961 46.235 67.0183 46.4355 67.6364 46.5299C68.2545 46.6361 69.0033 46.7423 69.8354 46.8366L68.9796 47.7215C68.5041 48.2052 67.8385 48.9956 67.5057 49.4675C67.1729 49.9276 66.6736 50.7653 66.3884 51.3197C66.115 51.8742 65.7584 52.6647 65.6158 53.0894C65.4612 53.5141 65.3305 53.868 65.3305 53.8916C65.3186 53.9152 64.6292 53.7619 63.7734 53.5495C62.9176 53.3489 61.5626 52.9478 60.7424 52.6765C59.9223 52.3933 59.007 52.0512 58.1275 51.6737L58.698 50.9422C59.007 50.5293 59.4706 49.8568 59.7202 49.4321C59.9698 49.0074 60.374 48.1816 60.6236 47.6035Z" fill="#22C55E"/>
<path d="M95.5095 45.5979C96.2345 45.3737 96.9834 45.1024 97.1736 45.008C97.3637 44.9254 97.6015 44.8428 97.6847 44.8428C97.7679 44.831 97.8867 45.1496 97.9937 45.6333C98.0888 46.0698 98.3622 46.9074 98.5999 47.4855C98.8376 48.0636 99.2536 48.913 99.527 49.3731C99.8004 49.8332 100.276 50.5293 101.155 51.6737L100.597 51.9214C100.276 52.0512 99.3606 52.3933 98.5405 52.6765C97.7203 52.9478 96.3534 53.3489 95.5095 53.5495C94.6656 53.7619 93.9643 53.9152 93.9524 53.8916C93.9524 53.868 93.8217 53.5141 93.6671 53.0894C93.5245 52.6647 93.1679 51.8742 92.8945 51.3197C92.6093 50.7653 92.11 49.9276 91.7772 49.4675C91.4444 48.9956 90.7788 48.2052 89.4475 46.8484L89.8636 46.7895C90.0894 46.7541 90.5767 46.6951 90.9333 46.6597C91.2899 46.6125 92.1814 46.4591 92.8945 46.3058C93.6196 46.1524 94.7963 45.8338 95.5095 45.5979Z" fill="#22C55E"/>
<path d="M52.7074 25.3885C53.1947 24.8812 53.7058 24.5037 54.2526 24.2324C54.7161 24.0082 55.1203 23.8312 55.1678 23.8312C55.2272 23.8312 55.2986 24.1616 55.3342 24.5627C55.3699 24.9756 55.5006 25.7543 55.6314 26.3087C55.7621 26.8632 55.9047 27.4059 55.9285 27.5121C55.9761 27.6773 55.8334 27.7834 55.2035 27.984C54.7637 28.1374 54.2882 28.3733 54.1337 28.5149C53.9792 28.6683 53.8484 28.9042 53.8484 29.0458C53.8366 29.1992 53.9673 29.4705 54.1099 29.6593C54.3477 29.9424 54.4427 29.9896 54.7993 29.9306C55.0252 29.8952 55.5244 29.7537 56.5823 29.3761L56.9745 29.6947C57.3311 29.9896 57.3905 30.1076 57.4618 30.7918C57.5094 31.2166 57.652 32.066 57.7947 32.6795C57.9254 33.2929 58.1393 34.0834 58.484 35.039L58.1631 35.1216C57.9729 35.157 57.4024 35.157 56.8794 35.1216C56.3564 35.0862 55.5838 34.9328 55.1559 34.7794C54.728 34.6261 54.098 34.3193 53.7415 34.0952C53.3849 33.871 52.8262 33.3873 52.5053 33.0334C52.1844 32.6795 51.7921 32.1368 51.6376 31.8182C51.4831 31.5115 51.2691 30.957 51.1741 30.5795C51.079 30.2138 50.9958 29.6593 50.9958 29.3407C50.9958 29.034 51.0552 28.5031 51.1265 28.161C51.1978 27.8306 51.4237 27.229 51.6257 26.8396C51.8159 26.4503 52.3032 25.8014 52.7074 25.3885Z" fill="#FFC8BB"/>
<path d="M103.782 25.7189C103.901 25.1054 104.02 24.4211 104.02 24.2088C104.032 23.8666 104.056 23.8194 104.281 23.8902C104.424 23.9374 104.852 24.138 105.244 24.3503C105.625 24.5509 106.243 25.0346 106.623 25.4239C106.992 25.8132 107.467 26.4503 107.657 26.8396C107.859 27.229 108.085 27.8306 108.156 28.161C108.228 28.5031 108.287 29.034 108.287 29.3407C108.287 29.6593 108.204 30.2138 108.109 30.5795C108.014 30.957 107.8 31.5115 107.645 31.8182C107.491 32.1368 107.099 32.6795 106.778 33.0334C106.457 33.3873 105.898 33.871 105.541 34.0952C105.185 34.3193 104.555 34.6261 104.127 34.7794C103.699 34.9328 102.926 35.0862 102.403 35.1216C101.88 35.157 101.31 35.157 100.799 35.039L101.025 34.4137C101.144 34.0834 101.357 33.2929 101.488 32.6795C101.631 32.066 101.773 31.2166 101.821 30.7918C101.892 30.1076 101.952 29.9896 102.701 29.3761L103.39 29.6239C103.758 29.7537 104.258 29.8952 104.484 29.9306C104.84 29.9896 104.935 29.9424 105.173 29.6593C105.316 29.4705 105.446 29.1992 105.434 29.0458C105.434 28.9042 105.304 28.6683 105.149 28.5149C104.995 28.3733 104.519 28.1374 104.079 27.984C103.652 27.8424 103.295 27.7127 103.295 27.6891C103.295 27.6773 103.354 27.4767 103.414 27.2526C103.485 27.0284 103.652 26.3323 103.782 25.7189Z" fill="#FFC8BB"/>
<path d="M75.1009 16.8352C75.3386 16.5875 75.7309 16.2807 75.9567 16.1628C76.2063 16.033 76.6223 15.9386 76.967 15.9386C77.3949 15.9386 77.811 16.0448 78.4528 16.3397C78.9401 16.5639 79.475 16.7527 79.6414 16.7527C79.8078 16.7527 80.3308 16.5639 80.7944 16.3397C81.4362 16.033 81.8166 15.9268 82.2564 15.9268C82.613 15.9268 83.029 16.0212 83.2905 16.151C83.5401 16.2807 83.9442 16.5875 84.182 16.8352C84.4197 17.083 84.8714 17.7083 85.1685 18.2274C85.4775 18.7701 85.9411 19.9026 86.262 20.8818C86.583 21.8256 86.9514 22.7341 87.0941 22.9228C87.2486 23.0998 87.5695 23.3003 87.8072 23.3711C88.0569 23.4419 88.4491 23.4773 88.6749 23.4301C88.9245 23.3947 89.3881 23.1234 89.8635 22.7341C90.2914 22.3919 90.8263 21.8728 91.064 21.5779C91.3018 21.2947 91.6821 20.7639 91.9199 20.4099C92.1457 20.056 92.4428 19.5015 92.7994 18.5813L93.5007 19.2891C93.8811 19.6785 94.5467 20.4807 94.9746 21.0588C95.4144 21.6369 96.1632 22.7577 96.6387 23.5363C97.1141 24.3149 98.0293 26.0256 98.6712 27.3469C99.3249 28.6565 99.9074 29.7655 99.9787 29.8244C100.086 29.8834 100.098 30.1548 100.038 30.7329C99.9906 31.193 99.8242 32.0424 99.6696 32.6205C99.527 33.1986 99.2061 34.1896 98.9565 34.803C98.7187 35.4165 98.2433 36.4075 97.9105 36.9856C97.5658 37.5637 96.9834 38.4721 96.5911 38.9912C96.2108 39.5103 95.3431 40.4659 94.6774 41.1148C94.0237 41.7637 92.9658 42.6485 92.3596 43.0968C91.7416 43.5333 90.4816 44.2648 89.5664 44.7131C88.6512 45.1614 87.3437 45.7159 86.6543 45.94C85.9649 46.1642 84.8714 46.4473 84.2176 46.5889C83.5639 46.7187 82.2564 46.8956 81.3055 46.9664C79.9742 47.0726 79.2135 47.0726 77.9179 46.9664C77.0027 46.8956 75.719 46.7187 75.0653 46.5889C74.4115 46.4473 73.318 46.1524 72.6286 45.94C71.9392 45.7159 70.7625 45.2322 70.0136 44.8782C69.2648 44.5243 68.1356 43.8872 67.5175 43.4861C66.8995 43.0732 65.9129 42.3181 65.3186 41.8108C64.7362 41.2917 63.916 40.4777 63.5 39.994C63.084 39.5103 62.4421 38.6609 62.0737 38.1064C61.7052 37.5519 61.1465 36.5963 60.8494 35.9828C60.5404 35.3693 60.1243 34.3429 59.9223 33.7177C59.7202 33.0806 59.4706 32.1014 59.3755 31.5351C59.2804 30.957 59.1972 30.3553 59.1972 30.1784C59.1972 29.9896 59.2566 29.8244 59.3161 29.789C59.3755 29.7537 60.0174 28.5503 60.7305 27.111C61.4437 25.6599 62.3589 23.9492 62.775 23.3003C63.1791 22.6515 63.8804 21.6369 64.3083 21.0588C64.7481 20.4807 65.4137 19.6785 66.4716 18.5813L66.6736 19.1122C66.7925 19.4071 67.0777 19.9616 67.3392 20.3509C67.5889 20.7403 67.9811 21.2947 68.2188 21.5779C68.4565 21.8728 68.9914 22.3919 69.4193 22.7341C69.8948 23.1234 70.3583 23.3947 70.6079 23.4301C70.8338 23.4773 71.226 23.4419 71.4756 23.3711C71.7134 23.3003 72.0343 23.0998 72.1888 22.9228C72.3314 22.7341 72.6999 21.8256 73.0208 20.8818C73.3418 19.9026 73.8053 18.7701 74.1144 18.2274C74.4115 17.7083 74.8632 17.083 75.1009 16.8352Z" fill="#FFDACC"/>
<path d="M55.1559 43.5569C55.4531 43.4153 55.9285 43.2502 56.2257 43.1912C56.5228 43.1322 56.7843 43.085 56.82 43.0732C56.8556 43.0614 57.1766 43.1086 57.5331 43.1794C57.8897 43.2502 58.5435 43.4743 59.7915 44.0642L59.7202 44.5361C59.6845 44.7956 59.4944 45.4681 59.3042 46.0462C59.114 46.6125 58.8169 47.3557 58.6505 47.6979C58.4722 48.0282 58.1037 48.6535 57.8303 49.0782C57.5569 49.5029 57.1171 50.081 56.3683 50.9068L55.5838 50.5293C55.1559 50.3169 54.5735 49.9394 54.2882 49.6799C53.9911 49.4085 53.6583 48.9366 53.4443 48.4765C53.1472 47.804 53.1115 47.6153 53.1472 46.7776C53.1828 46.1288 53.2779 45.6687 53.4562 45.3029C53.5988 45.008 53.9198 44.5597 54.1694 44.3001C54.419 44.0406 54.8588 43.7103 55.1559 43.5569Z" fill="#FFDACC"/>
<path d="M100.288 43.6867C100.739 43.4743 101.334 43.2502 101.631 43.1912C101.928 43.1322 102.403 43.1086 102.701 43.144C102.998 43.1794 103.509 43.3091 103.83 43.4271C104.174 43.5451 104.65 43.8518 104.959 44.1468C105.256 44.4299 105.625 44.9254 105.791 45.244C106.005 45.6805 106.1 46.0698 106.136 46.7776C106.171 47.6153 106.136 47.804 105.839 48.4765C105.625 48.9366 105.292 49.4085 104.983 49.6799C104.709 49.9394 104.127 50.3169 102.915 50.9068L102.427 50.3759C102.166 50.081 101.726 49.5029 101.453 49.0782C101.179 48.6535 100.811 48.0282 100.632 47.6979C100.466 47.3557 100.169 46.6125 99.9787 46.0462C99.7885 45.4681 99.5983 44.7956 99.4913 44.0642L100.288 43.6867Z" fill="#FFDACC"/>
<path d="M69.9067 26.8515C70.0731 26.6509 70.4415 26.3678 70.7387 26.2262C71.0953 26.0374 71.4756 25.9548 71.9154 25.9548C72.3552 25.9548 72.7475 26.0492 73.0922 26.2262C73.3893 26.3678 73.7578 26.6509 73.9242 26.8515C74.0906 27.0638 74.3046 27.4295 74.3759 27.6773C74.4591 27.9368 74.5304 28.2672 74.5304 28.4323C74.5304 28.5975 74.4353 28.8689 74.2927 29.0458C74.1144 29.2936 73.9599 29.3761 73.6389 29.3761C73.318 29.3761 73.1635 29.2936 72.9852 29.0458C72.8426 28.8689 72.7356 28.6093 72.7475 28.4559C72.7475 28.3144 72.6405 28.0902 72.5097 27.9604C72.379 27.8307 72.1175 27.7245 71.9154 27.7245C71.7134 27.7245 71.4519 27.8307 71.3211 27.9604C71.1904 28.0902 71.0834 28.3144 71.0834 28.4559C71.0953 28.6093 70.9883 28.8689 70.8457 29.0458C70.6674 29.2936 70.501 29.3761 70.2276 29.3761C69.9899 29.3761 69.7284 29.27 69.562 29.1048C69.3956 28.9514 69.3005 28.7037 69.3005 28.4913C69.3005 28.2908 69.3718 27.9368 69.455 27.6773C69.5263 27.4295 69.7403 27.0638 69.9067 26.8515Z" fill="black"/>
<path d="M85.4062 26.8043C85.5964 26.5683 85.9768 26.2852 86.2383 26.1672C86.5117 26.0492 86.999 25.9548 87.3675 25.9548C87.7359 25.9548 88.2233 26.0492 88.4966 26.1672C88.7581 26.2852 89.1385 26.5683 89.3287 26.8043C89.5189 27.0402 89.7566 27.4295 89.8279 27.6773C89.9111 27.9368 89.9824 28.279 89.9824 28.4559C89.9824 28.6447 89.8636 28.916 89.6853 29.0812C89.5307 29.2464 89.2574 29.3761 89.091 29.3761C88.9246 29.3761 88.6631 29.2464 88.4966 29.0812C88.3302 28.916 88.1995 28.6565 88.1995 28.4913C88.1995 28.3262 88.0925 28.0902 87.9618 27.9604C87.831 27.8307 87.5695 27.7245 87.3675 27.7245C87.1654 27.7245 86.9039 27.8307 86.7732 27.9604C86.6424 28.0902 86.5354 28.3262 86.5354 28.4913C86.5354 28.6565 86.4047 28.916 86.2383 29.0812C86.06 29.27 85.8223 29.3761 85.5845 29.3761C85.3349 29.3761 85.1566 29.2818 84.9902 29.0458C84.8476 28.8689 84.7525 28.5975 84.7525 28.4323C84.7525 28.2672 84.8238 27.9368 84.907 27.6773C84.9783 27.4295 85.2161 27.0402 85.4062 26.8043Z" fill="black"/>
<path d="M76.8244 27.5121C77.1335 27.3706 77.7397 27.2054 78.1794 27.1464C78.6311 27.0874 79.5226 27.0638 80.1763 27.0874C80.8301 27.1228 81.6264 27.2172 81.9593 27.3116C82.3158 27.4059 82.7794 27.6655 83.1122 27.9486C83.552 28.3144 83.7303 28.5857 83.8729 29.0458C84.0156 29.4941 84.0512 29.9542 84.0156 30.6739C83.9799 31.4643 83.8967 31.8301 83.6114 32.4435C83.4213 32.8683 83.0171 33.4699 82.7319 33.7767C82.4109 34.1306 81.8879 34.4963 81.4244 34.7205C80.735 35.0626 80.5448 35.098 79.582 35.098C78.5836 35.098 78.4647 35.0744 77.7515 34.6851C77.3355 34.4609 76.7769 34.0362 76.5154 33.7413C76.242 33.4463 75.8616 32.8683 75.6715 32.4435C75.3862 31.8301 75.303 31.4761 75.2673 30.6739C75.2436 30.1194 75.2792 29.4469 75.3505 29.1638C75.4219 28.8924 75.6596 28.4677 75.8735 28.22C76.0994 27.984 76.5273 27.6655 76.8244 27.5121Z" fill="black"/>
<path d="M67.6364 29.3289C67.8028 29.2228 68.1713 29.0694 68.4684 28.975C68.7656 28.8806 69.0508 28.7981 69.1222 28.7863C69.1935 28.7863 69.3718 28.916 69.5382 29.0812C69.7284 29.27 69.9661 29.3761 70.1919 29.3761C70.394 29.3761 70.6555 29.27 70.7862 29.1402C71.024 28.916 71.024 28.916 71.6183 29.1874C71.9392 29.3289 72.3909 29.6357 72.6167 29.8598C72.8307 30.084 73.104 30.4261 73.1991 30.6149C73.3061 30.8037 73.3893 31.2638 73.3893 31.6177C73.4012 32.1132 73.318 32.3963 73.0684 32.8328C72.8901 33.1396 72.5216 33.5525 72.2482 33.7413C71.963 33.9418 71.4637 34.1896 71.1428 34.2958C70.7268 34.4255 70.2395 34.4609 69.5382 34.4373C68.8131 34.4019 68.3852 34.3193 67.993 34.1306C67.6958 33.989 67.2798 33.6941 67.054 33.4817C66.84 33.2694 66.5548 32.8918 66.4359 32.6559C66.3051 32.3963 66.2101 31.9598 66.2101 31.6177C66.2101 31.2756 66.3051 30.8508 66.4359 30.5913C66.5666 30.3435 66.8162 30.0014 67.0064 29.8362C67.1847 29.6593 67.47 29.4351 67.6364 29.3289Z" fill="#EDA1AB"/>
<path d="M89.1266 29.3761C89.2811 29.3761 89.5188 29.2464 89.6615 29.093C89.8754 28.857 90.0062 28.8099 90.339 28.857C90.5648 28.8924 90.969 29.0104 91.2305 29.1284C91.4919 29.2464 91.908 29.5177 92.1695 29.7419C92.4191 29.966 92.7281 30.3435 92.847 30.5913C92.9777 30.839 93.0728 31.2756 93.0728 31.6177C93.0728 31.9598 92.9777 32.3845 92.847 32.6559C92.7162 32.8918 92.4428 33.2576 92.217 33.4581C92.0031 33.6705 91.587 33.9536 91.2899 34.107C90.9095 34.2958 90.4816 34.3901 89.8041 34.4255C89.1385 34.4609 88.663 34.4255 88.1995 34.284C87.8429 34.1778 87.3318 33.9418 87.0703 33.7649C86.8088 33.5761 86.4284 33.175 86.2383 32.8564C85.953 32.3963 85.8817 32.1486 85.8817 31.6295C85.8817 31.134 85.9649 30.839 86.1907 30.4379C86.369 30.143 86.7137 29.7655 86.9633 29.5885C87.2248 29.4115 87.6171 29.1874 87.8429 29.093C88.2232 28.9396 88.2827 28.9396 88.5561 29.152C88.7225 29.2818 88.9721 29.3879 89.1266 29.3761Z" fill="#EDA1AB"/>
<path d="M77.4663 29.1755C77.6565 29.0694 78.0962 28.9396 78.4528 28.8924C78.8094 28.8452 79.5939 28.8334 80.1763 28.857C80.7587 28.8924 81.4244 28.9986 81.6383 29.093C81.8404 29.1873 82.0781 29.3761 82.1494 29.5177C82.2326 29.671 82.2683 30.143 82.2445 30.6267C82.2089 31.2991 82.1257 31.5705 81.8404 32.0306C81.6502 32.3491 81.2461 32.7738 80.9727 32.9626C80.521 33.2811 80.3546 33.3283 79.6414 33.3283C78.9283 33.3283 78.7619 33.2811 78.3102 32.9626C78.0368 32.7738 77.6446 32.3491 77.4425 32.0306C77.181 31.6059 77.074 31.2755 77.0384 30.7446C77.0146 30.3435 77.0265 29.8834 77.074 29.6946C77.1097 29.5177 77.288 29.2817 77.4663 29.1755Z" fill="white"/>
<path d="M13.039 74.8563C13.4568 75.7079 13.6657 76.6559 13.6657 77.7003C13.6657 78.7447 13.4568 79.6927 13.039 80.5443C12.6213 81.3798 12.083 82.0466 11.4242 82.5447C10.0906 83.5731 8.70876 84.0872 7.27873 84.0872H4.26601V86.8107C4.26601 87.1803 4.24994 87.4615 4.2178 87.6543C4.20174 87.8311 4.12943 88.0399 4.00089 88.281C3.77594 88.7148 3.14929 88.9317 2.12095 88.9317C0.996205 88.9317 0.337424 88.6344 0.14461 88.0399C0.0482035 87.7668 0 87.349 0 86.7866V73.4102C0 73.0406 0.0080339 72.7675 0.0241017 72.5907C0.0562374 72.3979 0.136577 72.181 0.265119 71.94C0.490069 71.5061 1.11671 71.2892 2.14506 71.2892H7.30283C8.7168 71.2892 10.0906 71.8034 11.4242 72.8317C12.083 73.3298 12.6213 74.0047 13.039 74.8563ZM7.30283 79.8212C7.78486 79.8212 8.25886 79.6445 8.72483 79.291C9.1908 78.9375 9.42378 78.4073 9.42378 77.7003C9.42378 76.9933 9.1908 76.4631 8.72483 76.1096C8.25886 75.74 7.77683 75.5552 7.27873 75.5552H4.26601V79.8212H7.30283Z" fill="#22C55E"/>
<path d="M19.4944 84.6898H26.9177C27.2873 84.6898 27.5604 84.7059 27.7372 84.738C27.93 84.7541 28.1469 84.8264 28.3879 84.9549C28.8217 85.1799 29.0386 85.8065 29.0386 86.8348C29.0386 87.9596 28.7414 88.6184 28.1469 88.8112C27.8737 88.9076 27.456 88.9558 26.8936 88.9558H17.3493C16.2246 88.9558 15.5658 88.6505 15.373 88.0399C15.2766 87.7828 15.2283 87.3731 15.2283 86.8107V73.4102C15.2283 72.5907 15.381 72.0364 15.6863 71.7472C15.9916 71.4419 16.57 71.2892 17.4216 71.2892H26.9177C27.2873 71.2892 27.5604 71.3053 27.7372 71.3374C27.93 71.3535 28.1469 71.4258 28.3879 71.5543C28.8217 71.7793 29.0386 72.4059 29.0386 73.4343C29.0386 74.559 28.7414 75.2178 28.1469 75.4106C27.8737 75.507 27.456 75.5552 26.8936 75.5552H19.4944V77.9895H24.2665C24.6361 77.9895 24.9092 78.0056 25.086 78.0377C25.2788 78.0538 25.4957 78.1261 25.7367 78.2546C26.1705 78.4796 26.3875 79.1062 26.3875 80.1346C26.3875 81.2593 26.0822 81.9181 25.4716 82.1109C25.1984 82.2073 24.7807 82.2555 24.2183 82.2555H19.4944V84.6898Z" fill="#22C55E"/>
<path d="M32.743 71.2651L37.2018 71.2892C39.5316 71.2892 41.5803 72.1328 43.3477 73.8199C45.1152 75.491 45.9989 77.5557 45.9989 80.0141C45.9989 82.4564 45.1313 84.5532 43.3959 86.3046C41.6767 88.056 39.5879 88.9317 37.1295 88.9317H32.7189C31.7387 88.9317 31.1282 88.7309 30.8871 88.3292C30.6943 87.9917 30.5979 87.4776 30.5979 86.7866V73.3861C30.5979 73.0004 30.6059 72.7193 30.622 72.5425C30.6542 72.3658 30.7345 72.1569 30.863 71.9159C31.088 71.482 31.7146 71.2651 32.743 71.2651ZM37.2018 84.6657C38.3587 84.6657 39.4031 84.2399 40.335 83.3883C41.267 82.5206 41.7329 81.4361 41.7329 80.1346C41.7329 78.8331 41.275 77.7485 40.3591 76.8808C39.4593 75.9971 38.3988 75.5552 37.1777 75.5552H34.8639V84.6657H37.2018Z" fill="#22C55E"/>
<path d="M59.1127 71.94C59.2734 71.6829 59.5064 71.5061 59.8117 71.4097C60.117 71.3133 60.4946 71.2651 60.9445 71.2651C61.4104 71.2651 61.78 71.3053 62.0531 71.3856C62.3263 71.466 62.5352 71.5624 62.6798 71.6749C62.8244 71.7873 62.9288 71.956 62.9931 72.181C63.0895 72.4541 63.1377 72.8719 63.1377 73.4343V80.713C63.1377 82.834 62.4789 84.7621 61.1614 86.4974C60.5187 87.3169 59.6912 87.9837 58.6789 88.4979C57.6666 88.996 56.5419 89.245 55.3046 89.245C54.0835 89.245 52.9668 88.9879 51.9545 88.4738C50.9583 87.9596 50.1469 87.2847 49.5202 86.4492C48.2187 84.746 47.568 82.8179 47.568 80.6648V73.4102C47.568 73.0245 47.576 72.7434 47.5921 72.5666C47.6242 72.3738 47.7046 72.1569 47.8331 71.9159C47.9617 71.6748 48.1786 71.5061 48.4839 71.4097C48.7891 71.3133 49.1989 71.2651 49.713 71.2651C50.2272 71.2651 50.6369 71.3133 50.9422 71.4097C51.2475 71.5061 51.4564 71.6748 51.5689 71.9159C51.7617 72.2854 51.8581 72.7916 51.8581 73.4343V80.6648C51.8581 81.6449 52.0991 82.5769 52.5812 83.4606C52.8222 83.9105 53.1837 84.272 53.6657 84.5452C54.1478 84.8183 54.7182 84.9549 55.377 84.9549C56.5499 84.9549 57.4256 84.5211 58.004 83.6534C58.5825 82.7858 58.8717 81.7815 58.8717 80.6407V73.2656C58.8717 72.6389 58.952 72.1971 59.1127 71.94Z" fill="#22C55E"/>
<path d="M69.3219 85.3887H75.8776C76.4078 85.3887 76.7934 85.453 77.0344 85.5816C77.2755 85.694 77.4361 85.8788 77.5165 86.1359C77.5968 86.393 77.637 86.7384 77.637 87.1723C77.637 87.59 77.5968 87.9275 77.5165 88.1845C77.4361 88.4416 77.2996 88.6184 77.1067 88.7148C76.8015 88.8755 76.3837 88.9558 75.8535 88.9558H67.1768C66.0521 88.9558 65.3933 88.6505 65.2005 88.0399C65.1041 87.7828 65.0559 87.3731 65.0559 86.8107V73.4102C65.0559 73.0406 65.0639 72.7675 65.08 72.5907C65.1121 72.3979 65.1924 72.181 65.321 71.94C65.5459 71.5061 66.1726 71.2892 67.2009 71.2892C68.3257 71.2892 68.9925 71.5865 69.2014 72.181C69.2817 72.4541 69.3219 72.8719 69.3219 73.4343V85.3887Z" fill="#22C55E"/>
<path d="M79.2015 73.4102C79.2015 73.0406 79.2096 72.7675 79.2256 72.5907C79.2578 72.3979 79.3381 72.181 79.4666 71.94C79.6916 71.5061 80.3182 71.2892 81.3466 71.2892C82.4713 71.2892 83.1381 71.5865 83.347 72.181C83.4274 72.4541 83.4675 72.8719 83.4675 73.4343V86.8348C83.4675 87.2205 83.4515 87.5017 83.4193 87.6784C83.4033 87.8552 83.331 88.064 83.2024 88.3051C82.9775 88.7389 82.3508 88.9558 81.3225 88.9558C80.1977 88.9558 79.539 88.6505 79.3461 88.0399C79.2497 87.7828 79.2015 87.3731 79.2015 86.8107V73.4102Z" fill="#22C55E"/>
<path d="M101.683 72.5425L108.19 85.9913C108.463 86.5376 108.6 86.9473 108.6 87.2205C108.6 87.7989 108.134 88.3211 107.202 88.7871C106.656 89.0602 106.222 89.1968 105.901 89.1968C105.595 89.1968 105.338 89.1245 105.129 88.9799C104.937 88.8353 104.792 88.6826 104.696 88.522C104.615 88.3613 104.495 88.1203 104.334 87.7989L103.081 85.1959H96.4045L95.1512 87.7989C94.9906 88.1203 94.862 88.3533 94.7656 88.4979C94.6853 88.6425 94.5407 88.7951 94.3318 88.9558C94.139 89.1004 93.8819 89.1727 93.5605 89.1727C93.2552 89.1727 92.8294 89.0361 92.2831 88.763C91.3512 88.3131 90.8852 87.7989 90.8852 87.2205C90.8852 86.9473 91.0218 86.5376 91.295 85.9913L97.8024 72.5184C97.9792 72.1489 98.2443 71.8516 98.5978 71.6266C98.9673 71.4017 99.353 71.2892 99.7547 71.2892C100.622 71.2892 101.265 71.707 101.683 72.5425ZM99.7306 78.3269L98.1398 81.6289H101.345L99.7306 78.3269Z" fill="#22C55E"/>
<path d="M121.317 72.0364C121.478 71.7472 121.711 71.5543 122.016 71.4579C122.321 71.3615 122.699 71.3133 123.149 71.3133C123.615 71.3133 123.985 71.3535 124.258 71.4338C124.547 71.5142 124.756 71.6106 124.884 71.7231C125.029 71.8355 125.133 72.0042 125.198 72.2292C125.294 72.4863 125.342 72.896 125.342 73.4584V86.8348C125.342 87.2205 125.326 87.5017 125.294 87.6784C125.278 87.8552 125.206 88.064 125.077 88.3051C124.852 88.7389 124.226 88.9558 123.197 88.9558C122.571 88.9558 122.137 88.9076 121.896 88.8112C121.655 88.7148 121.454 88.5621 121.293 88.3533C117.678 83.5329 115.3 80.3836 114.159 78.9054V86.8348C114.159 87.2205 114.143 87.5017 114.111 87.6784C114.095 87.8552 114.022 88.064 113.894 88.3051C113.669 88.7389 113.042 88.9558 112.014 88.9558C111.018 88.9558 110.407 88.7389 110.182 88.3051C110.054 88.064 109.973 87.8471 109.941 87.6543C109.925 87.4615 109.917 87.1803 109.917 86.8107V73.362C109.917 72.7514 109.989 72.3095 110.134 72.0364C110.295 71.7472 110.528 71.5543 110.833 71.4579C111.138 71.3615 111.532 71.3133 112.014 71.3133C112.496 71.3133 112.874 71.3615 113.147 71.4579C113.436 71.5383 113.637 71.6347 113.749 71.7472C113.814 71.7954 113.998 72.0042 114.304 72.3738C117.694 76.9853 119.96 80.0301 121.1 81.5084V73.362C121.1 72.7514 121.173 72.3095 121.317 72.0364Z" fill="#22C55E"/>
<path d="M137.459 72.5425L143.966 85.9913C144.239 86.5376 144.376 86.9473 144.376 87.2205C144.376 87.7989 143.91 88.3211 142.978 88.7871C142.432 89.0602 141.998 89.1968 141.677 89.1968C141.371 89.1968 141.114 89.1245 140.905 88.9799C140.713 88.8353 140.568 88.6826 140.472 88.522C140.391 88.3613 140.271 88.1203 140.11 87.7989L138.857 85.1959H132.181L130.927 87.7989C130.767 88.1203 130.638 88.3533 130.542 88.4979C130.461 88.6425 130.317 88.7951 130.108 88.9558C129.915 89.1004 129.658 89.1727 129.337 89.1727C129.031 89.1727 128.605 89.0361 128.059 88.763C127.127 88.3131 126.661 87.7989 126.661 87.2205C126.661 86.9473 126.798 86.5376 127.071 85.9913L133.578 72.5184C133.755 72.1489 134.02 71.8516 134.374 71.6266C134.743 71.4017 135.129 71.2892 135.531 71.2892C136.398 71.2892 137.041 71.707 137.459 72.5425ZM135.507 78.3269L133.916 81.6289H137.121L135.507 78.3269Z" fill="#22C55E"/>
<path d="M153.261 80.0864C155.719 82.4483 157.463 84.2238 158.491 85.4128C159.021 86.0074 159.287 86.5135 159.287 86.9313C159.287 87.3329 158.965 87.815 158.322 88.3774C157.68 88.9237 157.15 89.1968 156.732 89.1968C156.33 89.1968 155.84 88.8594 155.262 88.1845L149.959 82.135V86.8348C149.959 87.2205 149.943 87.5017 149.911 87.6784C149.895 87.8552 149.823 88.064 149.694 88.3051C149.469 88.7389 148.842 88.9558 147.814 88.9558C146.689 88.9558 146.031 88.6505 145.838 88.0399C145.741 87.7828 145.693 87.3731 145.693 86.8107V73.4102C145.693 73.0406 145.701 72.7675 145.717 72.5907C145.749 72.3979 145.83 72.181 145.958 71.94C146.183 71.5061 146.81 71.2892 147.838 71.2892C148.963 71.2892 149.63 71.5865 149.839 72.181C149.919 72.4541 149.959 72.8719 149.959 73.4343V78.0377C152.144 75.5793 153.912 73.5628 155.262 71.9882C155.824 71.3294 156.314 71 156.732 71C157.15 71 157.68 71.2812 158.322 71.8436C158.965 72.3899 159.287 72.8719 159.287 73.2897C159.287 73.6914 159.046 74.1734 158.563 74.7358C157.632 75.8123 156.185 77.2906 154.225 79.1705L153.261 80.0864Z" fill="#22C55E"/>
</svg>
