<svg width="61" height="59" viewBox="0 0 61 59" fill="none" xmlns="http://www.w3.org/2000/svg">
<path d="M20.7491 49.2434C20.868 49.0664 21.3315 48.6181 21.7951 48.2406C22.2468 47.8512 22.639 47.5445 22.6509 47.5445C22.6747 47.5445 22.8292 47.6035 23.0075 47.6743C23.1976 47.7451 23.8514 47.922 24.4695 48.0754C25.0875 48.2406 26.1335 48.4411 26.7873 48.5355C27.441 48.6299 28.5583 48.7479 29.2834 48.795C30.0203 48.8304 31.3159 48.8068 32.2549 48.7361C33.1701 48.6653 34.5371 48.4765 35.2859 48.3113C36.0347 48.158 36.9975 47.922 38.198 47.5563L38.5546 47.8276C38.7448 47.981 39.2202 48.4057 39.5887 48.7714C39.969 49.1372 40.2781 49.4675 40.2781 49.5265C40.29 49.5737 39.9809 49.7271 39.6006 49.8686C39.2202 50.0102 38.4595 50.258 37.9008 50.4231C37.3422 50.5883 36.3556 50.8242 35.7019 50.954C35.0482 51.0838 33.8952 51.249 33.1464 51.3315C32.3025 51.4141 30.9118 51.4495 29.5211 51.4023C28.2849 51.3669 26.7516 51.249 26.1335 51.1428C25.5154 51.0366 24.5764 50.8478 24.0534 50.7181C23.5305 50.5883 22.532 50.3051 21.8307 50.081C21.1176 49.8568 20.547 49.6445 20.547 49.6091C20.547 49.5737 20.6421 49.4085 20.7491 49.2434Z" fill="#22CC55"/>
<path d="M23.1145 0.920216C23.2095 0.731454 23.4829 0.460108 23.7325 0.306739H23.7206C23.9703 0.141572 24.3506 0.0117976 24.5527 0.0117976C24.7666 0 25.1945 0.141572 25.5036 0.306739C25.8245 0.483703 26.3118 0.790442 26.609 0.979204C26.9061 1.17976 27.548 1.66347 28.0353 2.06459C28.5227 2.46571 29.2477 3.14997 30.3531 4.34153L31.6012 3.14997C32.2906 2.4893 33.289 1.65167 33.8001 1.28594C34.3231 0.920216 35.0006 0.483703 35.3097 0.306739C35.6306 0.141572 36.0466 0 36.2368 0C36.427 0 36.8073 0.129774 37.0688 0.294941C37.3303 0.460108 37.6156 0.731454 37.7107 0.920216C37.7939 1.09718 37.9246 1.72246 37.9959 2.30054C38.0673 2.89042 38.2337 3.84603 38.3644 4.42412C38.507 5.014 38.6616 5.55669 38.7091 5.65107C38.7804 5.76905 38.9825 5.73365 39.767 5.43871C40.3137 5.23815 41.3003 4.94321 41.9659 4.77804C42.6434 4.61288 43.7488 4.42412 44.4382 4.35333C45.1276 4.28254 46.138 4.24715 46.6966 4.29434C47.2553 4.32973 48.0279 4.44771 48.4201 4.55389C48.8124 4.66007 49.2403 4.81344 49.371 4.90782C49.5018 5.0022 49.7038 5.22635 49.8108 5.40332C49.9297 5.58028 50.0247 5.94601 50.0247 6.22915C50.0247 6.5005 49.9653 6.84263 49.894 6.996C49.8108 7.13757 49.3116 7.68026 48.7767 8.19936C48.2299 8.71846 47.6 9.44991 47.3622 9.82743C47.1245 10.1932 46.9343 10.5353 46.9343 10.5943C46.9225 10.6415 47.3385 10.8892 47.8496 11.1488C48.3607 11.4201 49.0976 11.8448 49.4899 12.0926C49.8821 12.3521 50.4289 12.7768 50.7023 13.0364C51.0588 13.3667 51.2134 13.6027 51.2134 13.8386C51.2134 14.0274 51.0945 14.2751 50.9162 14.4521C50.7617 14.6173 50.5121 14.7471 50.3576 14.7471C50.203 14.7471 49.6563 14.4285 49.1333 14.0274C48.6103 13.6381 47.6237 13.0482 46.9462 12.7061C46.2687 12.3639 45.5793 11.951 45.4248 11.774C45.2822 11.5853 45.1158 11.2432 45.0801 11.0072C45.0326 10.7083 45.0801 10.3819 45.2227 10.028C45.3416 9.73305 45.6863 9.11958 45.9953 8.67127C46.3044 8.22296 46.9106 7.5033 47.3385 7.07858C47.7783 6.65387 48.123 6.29994 48.0992 6.27634C48.0754 6.26455 47.5762 6.18196 46.9938 6.11118C46.1855 6.005 45.6031 6.005 44.6165 6.11118C43.8915 6.18196 42.8812 6.35893 42.3582 6.4887C41.8352 6.61848 40.8486 6.93701 40.1592 7.20836C39.1132 7.62128 38.8399 7.68026 38.4357 7.60948C38.1386 7.55049 37.8176 7.38532 37.5918 7.14937C37.3422 6.90162 37.1164 6.4769 36.9143 5.83983C36.7479 5.32074 36.5339 4.44771 36.427 3.89322C36.32 3.33873 36.2368 2.70166 36.2368 2.4775C36.2368 2.25335 36.213 2.02919 36.1774 1.982C36.1417 1.92302 35.8921 2.02919 35.6068 2.20616C35.3334 2.37133 34.7867 2.76065 34.3944 3.05559C34.0022 3.35053 33.1345 4.12917 32.457 4.80164C31.6725 5.59208 31.1138 6.05219 30.8524 6.12298C30.6265 6.19376 30.2937 6.19376 30.0203 6.12298C29.6875 6.04039 29.2834 5.72186 28.3563 4.80164C27.6906 4.12917 26.8229 3.35053 26.4307 3.05559C26.0385 2.76065 25.4917 2.37133 25.2064 2.20616C24.933 2.02919 24.6834 1.92302 24.6478 1.982C24.6121 2.02919 24.5883 2.25335 24.5883 2.4775C24.5883 2.70166 24.5051 3.33873 24.3982 3.89322C24.2912 4.44771 24.0772 5.32074 23.9108 5.83983C23.7088 6.4769 23.4829 6.90162 23.2333 7.14937C23.0075 7.38532 22.6865 7.55049 22.3894 7.60948C21.9853 7.68026 21.7119 7.62128 20.6659 7.20836C19.9765 6.93701 18.9899 6.61848 18.467 6.4887C17.944 6.35893 16.9336 6.18196 16.2086 6.11118C15.222 6.005 14.6396 6.005 13.8313 6.11118C13.237 6.18196 12.7497 6.26455 12.7259 6.27634C12.7022 6.29994 13.0469 6.65387 13.4866 7.07858C13.9146 7.5033 14.5207 8.22296 14.8298 8.67127C15.1388 9.11958 15.4835 9.73305 15.6024 10.028C15.745 10.3819 15.7926 10.7083 15.745 11.0072C15.7094 11.2432 15.5311 11.6089 15.3409 11.8094C15.1626 12.01 14.5921 12.3757 14.0691 12.6117C13.5461 12.8476 12.7735 13.2841 12.3456 13.5673C11.9177 13.8504 11.2639 14.3813 10.8717 14.7353C10.4913 15.101 9.94457 15.7145 9.67119 16.1038C9.38592 16.4931 8.9699 17.2128 8.73218 17.6965C8.50634 18.1802 8.1973 19.065 8.05467 19.6431C7.82883 20.5161 7.78128 21.0234 7.78128 22.5335C7.78128 23.8666 7.84072 24.6335 7.99524 25.3649C8.1141 25.9194 8.32805 26.7099 8.48257 27.1346C8.6252 27.5593 8.77972 27.984 8.83915 28.0784C8.89859 28.2082 9.24328 27.6183 10.0278 26.0728C10.6221 24.8694 11.4541 23.3357 11.8582 22.6515C12.2743 21.9672 13.0231 20.8582 13.5223 20.174C14.0096 19.4897 14.8179 18.5223 15.3171 18.0268C15.8045 17.5313 16.3512 17.0712 16.5295 17.0004C16.7197 16.9296 17.1 16.8706 17.3972 16.8706C17.8132 16.8706 18.0153 16.9414 18.3124 17.201C18.5145 17.3779 18.8473 17.897 19.0613 18.3453C19.2633 18.7936 19.6199 19.4425 19.8458 19.761C20.0597 20.0914 20.5352 20.6341 20.868 20.9762C21.2127 21.3065 21.5336 21.5897 21.5811 21.5897C21.6406 21.5897 21.7951 21.1768 21.9496 20.6813C22.1041 20.174 22.4251 19.3127 22.6509 18.7582C22.8886 18.2038 23.3046 17.3897 23.5661 16.9414C23.8395 16.5049 24.3982 15.8088 24.8261 15.4077C25.3728 14.8886 25.8126 14.5937 26.3118 14.4049C26.9061 14.1808 27.1914 14.1454 27.9759 14.1808C28.701 14.2162 29.0932 14.3105 30.3531 14.9004L31.1257 14.5701C31.6963 14.3223 32.1479 14.2162 32.8492 14.1808C33.6218 14.1454 33.9309 14.1808 34.5133 14.4049C35.0719 14.6055 35.4166 14.8532 36.1298 15.5611C36.8905 16.3161 37.1401 16.6701 37.7107 17.8144C38.091 18.5577 38.5546 19.7021 38.7567 20.3509C38.9587 20.9998 39.1489 21.5425 39.1727 21.5661C39.1964 21.5779 39.3747 21.4717 39.5768 21.3301C39.7789 21.1768 40.2068 20.7403 40.5277 20.3509C40.8605 19.9616 41.3597 19.1594 41.6331 18.5813C41.9184 18.0032 42.3225 17.3779 42.5246 17.201C42.8098 16.9414 43.0119 16.8706 43.4279 16.8706C43.7251 16.8706 44.1054 16.9296 44.2837 17.0004C44.4739 17.0712 45.0207 17.5313 45.508 18.0268C45.9953 18.5341 46.8036 19.5015 47.3028 20.174C47.802 20.8582 48.5509 21.9672 48.9669 22.6515C49.371 23.3357 50.203 24.8694 50.8092 26.0728C51.7364 27.9368 51.9147 28.22 52.0216 28.0194C52.0811 27.8896 52.2712 27.3587 52.4376 26.8396C52.5922 26.3205 52.8061 25.4947 52.8893 25.011C52.9844 24.5155 53.0438 23.3829 53.0438 22.4155C53.032 21.2593 52.9725 20.4335 52.8418 19.879C52.7229 19.4307 52.4733 18.6285 52.2712 18.1094C51.9384 17.2481 51.9146 17.1302 52.0573 16.8116C52.1524 16.6229 52.3782 16.4105 52.5565 16.3397C52.818 16.2454 52.9606 16.2689 53.2102 16.3987C53.3885 16.5049 53.6263 16.7644 53.7332 16.9886C53.8521 17.2128 54.0779 17.8262 54.2443 18.3453C54.4226 18.8644 54.6485 19.8908 54.9575 21.9672L55.7895 22.2857C56.2531 22.4627 56.9425 22.8048 57.3347 23.0526C57.727 23.3121 58.3451 23.8194 58.7017 24.1852C59.0582 24.5627 59.5337 25.1526 59.7358 25.4947C59.9497 25.8486 60.2706 26.5329 60.4489 27.0166C60.6748 27.6419 60.7817 28.2082 60.8174 28.9632C60.8531 29.6947 60.8055 30.2845 60.6629 30.8508C60.5559 31.3109 60.2944 32.066 60.0686 32.5379C59.7833 33.116 59.3792 33.6705 58.7849 34.2839C58.3213 34.7794 57.6081 35.3811 57.2159 35.6171C56.8236 35.853 56.2293 36.1716 55.9084 36.3013C55.5756 36.4429 54.8981 36.6317 54.387 36.7379C53.8878 36.844 53.1152 36.9266 52.6635 36.9266C52.2237 36.9148 51.6413 36.8794 50.833 36.7496L50.4764 37.4575C50.2744 37.8468 49.8465 38.5665 49.5136 39.0502C49.1927 39.5339 48.646 40.2771 48.3013 40.7019C47.9447 41.1266 47.2196 41.8934 46.6729 42.4125C46.138 42.9434 45.4723 43.5333 45.2108 43.7457C44.7948 44.076 44.7711 44.1232 44.9969 44.1232C45.1514 44.1232 45.7695 43.9462 46.3638 43.7221C46.97 43.5097 48.3726 42.9316 49.4899 42.4361C50.8687 41.8344 51.772 41.5041 52.3069 41.4215C52.8655 41.3271 53.3648 41.3271 53.9115 41.4097C54.387 41.4805 55.0883 41.7047 55.6113 41.9642C56.1818 42.2356 56.7286 42.6249 57.1208 43.026C57.513 43.4153 57.9172 44.0052 58.1906 44.5597C58.5947 45.3737 58.6422 45.5861 58.6898 46.6007C58.7135 47.4147 58.6779 47.9102 58.5234 48.4293C58.4164 48.8186 58.2143 49.3495 58.0717 49.6091C57.9409 49.8686 57.513 50.4113 57.1089 50.8242C56.5146 51.4377 56.1461 51.6855 55.0169 52.2282C54.2681 52.5939 52.818 53.2192 51.8077 53.6203C50.7974 54.0214 49.478 54.5051 48.8956 54.6821C48.3131 54.859 47.2434 55.154 45.2108 55.6495L45.1158 56.3455C45.0682 56.7231 44.8899 57.2657 44.7354 57.5371C44.569 57.8202 44.26 58.1742 44.046 58.3275C43.8439 58.4809 43.4517 58.6933 43.1902 58.7994C42.7623 58.9764 41.7044 59 23.8157 59L23.4829 58.6697C23.3046 58.4927 23.1501 58.2332 23.1501 58.1034C23.1501 57.9736 23.2571 57.7259 23.6374 57.2186H32.873C38.6259 57.2186 42.2868 57.1714 42.5602 57.1006C42.8812 57.018 43.0595 56.8764 43.1902 56.6287C43.2853 56.4399 43.3685 56.1568 43.3685 56.0034C43.3685 55.8618 43.2259 55.2366 43.0595 54.6231C42.893 54.0096 42.5721 53.1012 42.3463 52.6175C42.1204 52.1338 41.645 51.3079 41.3003 50.7888C40.9437 50.2697 40.29 49.4793 39.8502 49.0192C39.3985 48.5591 38.8399 48.0518 38.198 47.5563L37.4254 47.7922C36.9975 47.922 36.0347 48.158 35.2859 48.3113C34.5371 48.4765 33.1702 48.6653 32.2549 48.7361C31.3159 48.8068 30.0203 48.8304 29.2834 48.795C28.5583 48.7479 27.441 48.6299 26.7873 48.5355C26.1335 48.4411 25.0876 48.2406 24.4695 48.0754C23.8514 47.922 23.1739 47.7451 22.9837 47.6743C22.6747 47.5563 22.5796 47.5799 22.2111 47.863C21.9853 48.04 21.4266 48.5591 20.9749 49.0192C20.5352 49.4675 19.8814 50.2697 19.5248 50.7888C19.1801 51.3079 18.7047 52.1338 18.4788 52.6175C18.253 53.1012 17.9321 54.0096 17.7657 54.6231C17.5993 55.2366 17.4566 55.8618 17.4566 56.0034C17.4566 56.1568 17.5398 56.4399 17.6349 56.6287C17.7657 56.8764 17.944 57.018 18.253 57.1006C18.5026 57.1596 19.0375 57.2186 19.4416 57.2186C20.0359 57.2186 20.238 57.2657 20.4282 57.4545C20.5708 57.5961 20.6659 57.8438 20.6659 58.068C20.6659 58.3039 20.5589 58.5635 20.3925 58.7287C20.1667 58.9646 20.0122 59 19.1207 59C18.467 58.9882 17.944 58.9292 17.6349 58.7994C17.3734 58.6933 16.9812 58.4809 16.7672 58.3275C16.5652 58.1742 16.2442 57.7966 16.0659 57.4781C15.8758 57.1596 15.7212 56.6523 15.6143 55.6495L14.0691 55.2601C13.2133 55.0478 12.0128 54.7057 11.3947 54.5051C10.7766 54.2927 9.56421 53.8444 8.72029 53.5023C7.86449 53.1602 6.60455 52.6057 5.89138 52.2753C4.96426 51.8388 4.4175 51.4849 3.87073 50.9776C3.4666 50.6001 2.99116 50.0338 2.81286 49.7153C2.64646 49.3967 2.40873 48.8186 2.30176 48.4293C2.14724 47.9102 2.11158 47.4147 2.13535 46.6007C2.1829 45.5625 2.21856 45.3855 2.64646 44.5361C2.96738 43.899 3.33586 43.3799 3.77564 42.9552C4.17977 42.5541 4.7622 42.1648 5.2733 41.9288C5.72498 41.7047 6.46192 41.4805 6.90171 41.4097C7.47224 41.3271 7.94769 41.3271 8.50634 41.4215C9.05311 41.5041 9.96834 41.8344 11.3353 42.4361C12.4407 42.9198 13.867 43.5097 14.4851 43.7221C15.1032 43.9462 15.7212 44.1232 15.852 44.1232C16.0422 44.1232 15.9946 44.0524 15.6143 43.7457C15.3528 43.5333 14.6872 42.9434 14.1523 42.4125C13.6055 41.8934 12.8805 41.1266 12.5239 40.7019C12.1792 40.2771 11.6324 39.5339 11.3115 39.0502C10.9787 38.5665 10.5508 37.8468 9.99211 36.7496L9.46912 36.8322C9.18385 36.8794 8.60143 36.9148 8.14976 36.9266C7.70997 36.9266 6.93737 36.844 6.42626 36.7496C5.8795 36.6435 5.05935 36.3485 4.38184 36.0182C3.44283 35.5699 3.08625 35.3103 2.23044 34.4609C1.43407 33.6705 1.11314 33.2458 0.780328 32.5615C0.554491 32.0778 0.269222 31.3345 0.162247 30.9098C0.00772663 30.3435 -0.0279319 29.848 0.0196128 29.0222C0.0552713 28.3733 0.186019 27.5829 0.328653 27.1346C0.459401 26.7099 0.768442 26.0256 1.01805 25.6127C1.26766 25.1998 1.76688 24.5627 2.12347 24.1852C2.48005 23.8194 3.09813 23.3121 3.49038 23.0526C3.88262 22.8048 4.57202 22.4627 5.86761 21.9672L5.9627 21.3301C6.01024 20.988 6.12911 20.2683 6.2242 19.7257C6.31929 19.1948 6.55701 18.3217 6.75907 17.779C6.94925 17.2481 7.38904 16.3633 7.73374 15.8088C8.12598 15.16 8.74407 14.4167 9.48101 13.6735C10.111 13.06 10.943 12.3403 11.3353 12.0926C11.7275 11.833 12.4644 11.4201 12.9755 11.1488C13.4866 10.8892 13.9027 10.6415 13.8908 10.5943C13.8908 10.5353 13.7006 10.1932 13.4629 9.82743C13.2252 9.44991 12.5952 8.71846 12.0484 8.19936C11.5135 7.68026 11.0143 7.13757 10.943 6.996C10.8598 6.84263 10.8004 6.5005 10.8004 6.22915C10.8004 5.94601 10.8955 5.58028 11.0143 5.40332C11.1213 5.22635 11.3234 5.0022 11.4541 4.90782C11.5849 4.81344 12.0128 4.66007 12.405 4.55389C12.7973 4.44771 13.5699 4.32973 14.1285 4.29434C14.6872 4.24715 15.6975 4.28254 16.3869 4.35333C17.0763 4.42412 18.1817 4.61288 18.8473 4.77804C19.5248 4.94321 20.5114 5.23815 21.0463 5.43871C21.8426 5.73365 22.0447 5.76905 22.116 5.65107C22.1636 5.55669 22.3181 5.014 22.4607 4.42412C22.5915 3.83423 22.7579 2.89042 22.8292 2.30054C22.9005 1.71066 23.0312 1.09718 23.1145 0.920216Z" fill="black"/>
<path d="M12.7259 6.27638C12.7497 6.26458 13.0587 6.20559 13.4153 6.1466C13.7719 6.08761 14.39 6.04042 14.7822 6.02863C15.1745 6.02863 15.9471 6.07582 16.5057 6.1348C17.0644 6.20559 17.9677 6.37076 18.5264 6.51233C19.085 6.6421 20.0835 6.97244 21.9496 7.72749L22.009 9.32017C22.0566 10.5707 22.1279 11.1252 22.3656 11.9156C22.532 12.4701 22.8054 13.2134 22.9599 13.5673C23.1263 13.9212 23.4948 14.5701 24.3506 15.8089L23.9465 16.3634C23.7206 16.6819 23.3165 17.378 23.0431 17.9324C22.7579 18.4869 22.3418 19.5133 22.116 20.233C21.8783 20.9526 21.6762 21.5543 21.6524 21.5897C21.6406 21.6251 21.4504 21.4953 21.2364 21.3184C21.0225 21.1296 20.5827 20.6813 20.2736 20.3156C19.9527 19.9498 19.4654 19.1594 19.192 18.5813C18.9067 18.0032 18.5026 17.378 18.3005 17.1892C18.0153 16.9414 17.8132 16.8707 17.3972 16.8707C17.1 16.8707 16.7197 16.9296 16.5295 17.0004C16.3512 17.0712 15.8044 17.5313 15.3171 18.0268C14.8179 18.5223 14.0096 19.4897 13.5223 20.174C13.0231 20.8583 12.2743 21.9672 11.8582 22.6515C11.4541 23.3358 10.6221 24.8695 10.0278 26.0728C9.24328 27.6183 8.89858 28.2082 8.83915 28.0784C8.77972 27.984 8.6252 27.5593 8.48256 27.1346C8.32804 26.7099 8.11409 25.9194 7.99523 25.365C7.84071 24.6335 7.78128 23.8667 7.78128 22.5335C7.78128 21.0234 7.82883 20.5161 8.05466 19.6431C8.1973 19.065 8.50634 18.1802 8.73217 17.6965C8.9699 17.2128 9.38591 16.4931 9.67118 16.1038C9.94456 15.7145 10.4913 15.101 10.8717 14.7353C11.2639 14.3814 11.9177 13.8505 12.3456 13.5673C12.7735 13.2842 13.5461 12.8477 14.0691 12.6117C14.5921 12.3758 15.1626 12.01 15.3409 11.8095C15.5311 11.6089 15.7094 11.2432 15.745 10.9954C15.7926 10.7044 15.745 10.382 15.6024 10.028C15.4835 9.73308 15.1388 9.11961 14.8298 8.6713C14.5207 8.22299 13.9145 7.50333 13.4866 7.07862C13.0469 6.6539 12.7022 6.29997 12.7259 6.27638Z" fill="#E06E7E"/>
<path d="M24.5646 2.4657C24.5527 2.22974 24.5883 2.01739 24.6359 1.9702C24.6834 1.9348 24.9449 2.04098 25.2183 2.20615C25.4917 2.37132 26.0384 2.76064 26.4307 3.05558C26.8229 3.35052 27.6906 4.12916 28.3562 4.80163C29.1526 5.59207 29.7113 6.05218 29.9609 6.12296C30.1986 6.19375 30.5314 6.19375 30.7929 6.12296C31.1376 6.04038 31.5417 5.72185 32.457 4.80163C33.1345 4.12916 34.0022 3.35052 34.3944 3.05558C34.7867 2.76064 35.3334 2.37132 35.6068 2.20615C35.8921 2.02918 36.1417 1.92301 36.1774 1.9702C36.213 2.02918 36.2368 2.25334 36.2368 2.47749C36.2368 2.70165 36.32 3.33872 36.427 3.89321C36.5339 4.4477 36.7479 5.32073 36.9143 5.83982C37.1164 6.47689 37.3422 6.90161 37.5918 7.14936C37.8176 7.38531 38.1386 7.55048 38.4357 7.60947C38.8399 7.68025 39.1132 7.62127 40.1592 7.20835C40.8486 6.937 41.8352 6.61847 42.3582 6.48869C42.8812 6.35892 43.8915 6.18195 44.6165 6.11117C45.6031 6.00499 46.1855 6.00499 46.9938 6.11117C47.5762 6.18195 48.0754 6.26454 48.0992 6.27633C48.123 6.29993 47.7783 6.65386 47.3385 7.07857C46.9106 7.50329 46.3044 8.22295 45.9953 8.67126C45.6863 9.11957 45.3416 9.73304 45.2227 10.028C45.0801 10.3819 45.0326 10.7044 45.0801 10.9954C45.1158 11.2431 45.2822 11.5853 45.4248 11.7622C45.5793 11.951 46.2687 12.3639 46.9462 12.706C47.6237 13.0482 48.6103 13.6381 49.1333 14.0274C49.6563 14.4285 50.1793 14.747 50.2862 14.747C50.4051 14.747 50.6309 14.6763 50.7855 14.6055C51.047 14.4639 51.1064 14.4875 51.3798 14.806C51.5462 15.0066 51.8671 15.4077 52.0692 15.7262C52.4376 16.2453 52.4495 16.3043 52.2712 16.4931C52.1643 16.5993 52.0454 16.8116 51.9978 16.965C51.9503 17.1184 52.0573 17.5549 52.2712 18.074C52.4614 18.5459 52.711 19.3599 52.8299 19.879C52.9844 20.5515 53.0438 21.2947 53.0438 22.4745C53.0557 23.3829 52.9844 24.5273 52.8893 25.011C52.8061 25.4947 52.5922 26.3205 52.4376 26.8396C52.2712 27.3587 52.0811 27.8896 52.0216 28.0194C51.9146 28.2199 51.7364 27.9368 50.8092 26.0728C50.203 24.8694 49.371 23.3357 48.9669 22.6515C48.5509 21.9672 47.802 20.8582 47.3028 20.174C46.8036 19.5015 45.9953 18.5341 45.508 18.0268C45.0207 17.5313 44.4739 17.0712 44.2837 17.0004C44.1054 16.9296 43.7251 16.8706 43.4279 16.8706C43.0119 16.8706 42.8098 16.9414 42.5246 17.1892C42.3225 17.3779 41.9184 18.0032 41.6331 18.5813C41.3597 19.1594 40.8605 19.9616 40.5277 20.3509C40.2068 20.7402 39.7789 21.1768 39.5768 21.3183C39.3747 21.4717 39.1964 21.5779 39.1727 21.5543C39.1489 21.5425 38.9587 20.9998 38.7567 20.3509C38.5546 19.702 38.091 18.5577 37.7107 17.8144C37.1401 16.6701 36.8905 16.3161 36.1298 15.5611C35.4166 14.8532 35.0719 14.6055 34.5133 14.4049C33.9309 14.1808 33.6218 14.1454 32.8492 14.1808C32.1479 14.2161 31.6963 14.3223 30.3531 14.9004L29.64 14.5701C29.0932 14.3105 28.7009 14.2161 27.9759 14.1808C27.2271 14.1454 26.8824 14.1808 26.3713 14.3695C25.9909 14.5111 25.4322 14.865 24.3506 15.8088L23.9108 15.1954C23.6612 14.8532 23.2927 14.2279 23.0788 13.8032C22.8767 13.3785 22.5558 12.5645 22.3894 11.9746C22.1279 11.137 22.0566 10.5825 21.9377 7.72744L22.4013 7.62127C22.6628 7.57407 23.0312 7.36172 23.2333 7.14936C23.4829 6.90161 23.7088 6.47689 23.9108 5.83982C24.0772 5.32073 24.2912 4.4477 24.3982 3.89321C24.5051 3.33872 24.5764 2.70165 24.5646 2.4657Z" fill="#E48895"/>
<path d="M18.6453 52.3226C18.9781 51.6737 19.5011 50.7889 19.8101 50.3641L20.3806 49.5737L21.5693 49.9866C22.2111 50.2108 23.2571 50.5175 23.8752 50.6709C24.4932 50.8243 25.5155 51.0366 26.1335 51.1428C26.7516 51.249 28.2731 51.3669 29.5211 51.4023C30.9118 51.4495 32.3025 51.4141 33.1464 51.3316C33.8952 51.249 35.0482 51.0838 35.7019 50.954C36.3557 50.8243 37.4016 50.5647 38.0197 50.3877C38.6378 50.199 39.4342 49.9394 40.397 49.5501L40.9913 50.3523C41.3241 50.7889 41.8471 51.6737 42.1799 52.3226C42.5008 52.9714 42.9049 54.0096 43.0713 54.6231C43.2377 55.2366 43.3685 55.8618 43.3685 56.0152C43.3685 56.1568 43.2853 56.4399 43.1902 56.6287C43.0595 56.8764 42.8812 57.018 42.5721 57.1006C42.2869 57.1714 38.6259 57.2186 23.6374 57.2186L23.3997 57.5489C23.2571 57.7259 23.1501 57.9382 23.162 58.0208C23.162 58.127 22.853 58.1624 20.7848 58.1624L20.6659 57.8085C20.5946 57.6197 20.4401 57.4073 20.3093 57.3366C20.1786 57.2776 19.7626 57.2186 19.3822 57.2186C19.0137 57.2186 18.5026 57.1596 18.253 57.1006C17.944 57.018 17.7657 56.8764 17.6349 56.6287C17.5398 56.4399 17.4566 56.1568 17.4566 56.0152C17.4566 55.8618 17.5874 55.2366 17.7538 54.6231C17.9202 54.0096 18.3243 52.9714 18.6453 52.3226Z" fill="#8CE0DF"/>
<path d="M11.3947 47.6035C11.6443 47.0254 11.9415 46.1524 12.0603 45.6805C12.2267 45.008 12.3218 44.831 12.4644 44.8664C12.5595 44.9018 13.1776 45.126 13.8314 45.3619C14.4851 45.5979 15.5311 45.9164 16.1492 46.0816C16.7672 46.235 17.7894 46.4355 18.4075 46.5299C19.0256 46.6361 19.7744 46.7423 20.6065 46.8366L19.7507 47.7215C19.2752 48.2052 18.6096 48.9956 18.2768 49.4675C17.944 49.9276 17.4447 50.7653 17.1595 51.3197C16.8861 51.8742 16.5295 52.6647 16.3869 53.0894C16.2324 53.5141 16.1016 53.868 16.1016 53.8916C16.0897 53.9152 15.4003 53.7619 14.5445 53.5495C13.6887 53.3489 12.3337 52.9478 11.5135 52.6765C10.6934 52.3933 9.77817 52.0512 8.89859 51.6737L9.46913 50.9422C9.77817 50.5293 10.2417 49.8568 10.4913 49.4321C10.7409 49.0074 11.1451 48.1816 11.3947 47.6035Z" fill="#22C55E"/>
<path d="M46.2806 45.5979C47.0057 45.3737 47.7545 45.1024 47.9447 45.008C48.1349 44.9254 48.3726 44.8428 48.4558 44.8428C48.539 44.831 48.6578 45.1496 48.7648 45.6333C48.8599 46.0698 49.1333 46.9074 49.371 47.4855C49.6087 48.0636 50.0248 48.913 50.2981 49.3731C50.5715 49.8332 51.047 50.5293 51.9265 51.6737L51.3679 51.9214C51.047 52.0512 50.1317 52.3933 49.3116 52.6765C48.4914 52.9478 47.1245 53.3489 46.2806 53.5495C45.4367 53.7619 44.7354 53.9152 44.7235 53.8916C44.7235 53.868 44.5928 53.5141 44.4383 53.0894C44.2956 52.6647 43.939 51.8742 43.6657 51.3197C43.3804 50.7653 42.8812 49.9276 42.5484 49.4675C42.2155 48.9956 41.5499 48.2052 40.2187 46.8484L40.6347 46.7895C40.8605 46.7541 41.3478 46.6951 41.7044 46.6597C42.061 46.6125 42.9525 46.4591 43.6657 46.3058C44.3907 46.1524 45.5674 45.8338 46.2806 45.5979Z" fill="#22C55E"/>
<path d="M3.47849 25.3885C3.96582 24.8812 4.47692 24.5037 5.02369 24.2324C5.48725 24.0082 5.89138 23.8312 5.93892 23.8312C5.99835 23.8312 6.06967 24.1616 6.10533 24.5627C6.14099 24.9756 6.27174 25.7543 6.40248 26.3087C6.53323 26.8632 6.67587 27.4059 6.69964 27.5121C6.74718 27.6773 6.60455 27.7834 5.97458 27.984C5.53479 28.1374 5.05935 28.3733 4.90483 28.5149C4.75031 28.6683 4.61956 28.9042 4.61956 29.0458C4.60767 29.1992 4.73842 29.4705 4.88105 29.6593C5.11878 29.9424 5.21387 29.9896 5.57045 29.9306C5.79629 29.8952 6.29551 29.7537 7.35338 29.3761L7.74562 29.6947C8.10221 29.9896 8.16164 30.1076 8.23296 30.7918C8.2805 31.2166 8.42313 32.066 8.56577 32.6795C8.69652 33.2929 8.91047 34.0834 9.25517 35.039L8.93424 35.1216C8.74406 35.157 8.17352 35.157 7.65053 35.1216C7.12754 35.0862 6.35494 34.9328 5.92704 34.7794C5.49914 34.6261 4.86917 34.3193 4.51258 34.0952C4.156 33.871 3.59735 33.3873 3.27642 33.0334C2.95549 32.6795 2.56325 32.1368 2.40873 31.8182C2.25421 31.5115 2.04026 30.957 1.94517 30.5795C1.85008 30.2138 1.76688 29.6593 1.76688 29.3407C1.76688 29.034 1.82631 28.5031 1.89762 28.161C1.96894 27.8306 2.19478 27.229 2.39684 26.8396C2.58702 26.4503 3.07436 25.8014 3.47849 25.3885Z" fill="#FFC8BB"/>
<path d="M54.5534 25.7189C54.6722 25.1054 54.7911 24.4211 54.7911 24.2088C54.803 23.8666 54.8268 23.8194 55.0526 23.8902C55.1952 23.9374 55.6231 24.138 56.0154 24.3503C56.3957 24.5509 57.0138 25.0346 57.3942 25.4239C57.7626 25.8132 58.2381 26.4503 58.4283 26.8396C58.6303 27.229 58.8562 27.8306 58.9275 28.161C58.9988 28.5031 59.0582 29.034 59.0582 29.3407C59.0582 29.6593 58.975 30.2138 58.8799 30.5795C58.7849 30.957 58.5709 31.5115 58.4164 31.8182C58.2619 32.1368 57.8696 32.6795 57.5487 33.0334C57.2278 33.3873 56.6691 33.871 56.3125 34.0952C55.9559 34.3193 55.326 34.6261 54.8981 34.7794C54.4702 34.9328 53.6976 35.0862 53.1746 35.1216C52.6516 35.157 52.0811 35.157 51.57 35.039L51.7958 34.4137C51.9146 34.0834 52.1286 33.2929 52.2593 32.6795C52.402 32.066 52.5446 31.2166 52.5922 30.7918C52.6635 30.1076 52.7229 29.9896 53.4717 29.3761L54.1611 29.6239C54.5296 29.7537 55.0288 29.8952 55.2547 29.9306C55.6112 29.9896 55.7063 29.9424 55.9441 29.6593C56.0867 29.4705 56.2174 29.1992 56.2056 29.0458C56.2056 28.9042 56.0748 28.6683 55.9203 28.5149C55.7658 28.3733 55.2903 28.1374 54.8505 27.984C54.4226 27.8424 54.066 27.7127 54.066 27.6891C54.066 27.6773 54.1255 27.4767 54.1849 27.2526C54.2562 27.0284 54.4226 26.3323 54.5534 25.7189Z" fill="#FFC8BB"/>
<path d="M25.872 16.8352C26.1098 16.5875 26.502 16.2807 26.7278 16.1628C26.9774 16.033 27.3935 15.9386 27.7382 15.9386C28.1661 15.9386 28.5821 16.0448 29.2239 16.3397C29.7113 16.5639 30.2461 16.7527 30.4126 16.7527C30.579 16.7527 31.102 16.5639 31.5655 16.3397C32.2074 16.033 32.5877 15.9268 33.0275 15.9268C33.3841 15.9268 33.8001 16.0212 34.0616 16.151C34.3112 16.2807 34.7153 16.5875 34.9531 16.8352C35.1908 17.083 35.6425 17.7083 35.9396 18.2274C36.2487 18.7701 36.7122 19.9026 37.0332 20.8818C37.3541 21.8256 37.7225 22.7341 37.8652 22.9228C38.0197 23.0998 38.3406 23.3003 38.5784 23.3711C38.828 23.4419 39.2202 23.4773 39.446 23.4301C39.6957 23.3947 40.1592 23.1234 40.6347 22.7341C41.0626 22.3919 41.5974 21.8728 41.8352 21.5779C42.0729 21.2947 42.4533 20.7639 42.691 20.4099C42.9168 20.056 43.214 19.5015 43.5705 18.5813L44.2718 19.2891C44.6522 19.6785 45.3178 20.4807 45.7457 21.0588C46.1855 21.6369 46.9343 22.7577 47.4098 23.5363C47.8852 24.3149 48.8005 26.0256 49.4423 27.3469C50.0961 28.6565 50.6785 29.7655 50.7498 29.8244C50.8568 29.8834 50.8687 30.1548 50.8092 30.7329C50.7617 31.193 50.5953 32.0424 50.4408 32.6205C50.2981 33.1986 49.9772 34.1896 49.7276 34.803C49.4899 35.4165 49.0144 36.4075 48.6816 36.9856C48.3369 37.5637 47.7545 38.4721 47.3622 38.9912C46.9819 39.5103 46.1142 40.4659 45.4486 41.1148C44.7948 41.7637 43.737 42.6485 43.1308 43.0968C42.5127 43.5333 41.2527 44.2648 40.3375 44.7131C39.4223 45.1614 38.1148 45.7159 37.4254 45.94C36.736 46.1642 35.6425 46.4473 34.9887 46.5889C34.335 46.7187 33.0275 46.8956 32.0766 46.9664C30.7454 47.0726 29.9846 47.0726 28.6891 46.9664C27.7738 46.8956 26.4901 46.7187 25.8364 46.5889C25.1826 46.4473 24.0891 46.1524 23.3997 45.94C22.7103 45.7159 21.5336 45.2322 20.7847 44.8782C20.0359 44.5243 18.9067 43.8872 18.2887 43.4861C17.6706 43.0732 16.684 42.3181 16.0897 41.8108C15.5073 41.2917 14.6871 40.4777 14.2711 39.994C13.8551 39.5103 13.2133 38.6609 12.8448 38.1064C12.4763 37.5519 11.9177 36.5963 11.6205 35.9828C11.3115 35.3693 10.8955 34.3429 10.6934 33.7177C10.4913 33.0806 10.2417 32.1014 10.1466 31.5351C10.0515 30.957 9.96833 30.3553 9.96833 30.1784C9.96833 29.9896 10.0278 29.8244 10.0872 29.789C10.1466 29.7537 10.7885 28.5503 11.5016 27.111C12.2148 25.6599 13.1301 23.9492 13.5461 23.3003C13.9502 22.6515 14.6515 21.6369 15.0794 21.0588C15.5192 20.4807 16.1848 19.6785 17.2427 18.5813L17.4447 19.1122C17.5636 19.4071 17.8489 19.9616 18.1104 20.3509C18.36 20.7403 18.7522 21.2947 18.9899 21.5779C19.2277 21.8728 19.7625 22.3919 20.1904 22.7341C20.6659 23.1234 21.1294 23.3947 21.3791 23.4301C21.6049 23.4773 21.9971 23.4419 22.2467 23.3711C22.4845 23.3003 22.8054 23.0998 22.9599 22.9228C23.1026 22.7341 23.471 21.8256 23.792 20.8818C24.1129 19.9026 24.5764 18.7701 24.8855 18.2274C25.1826 17.7083 25.6343 17.083 25.872 16.8352Z" fill="#FFDACC"/>
<path d="M5.92703 43.5569C6.22419 43.4153 6.69963 43.2502 6.99679 43.1912C7.29394 43.1322 7.55544 43.085 7.5911 43.0732C7.62676 43.0614 7.94768 43.1086 8.30427 43.1794C8.66085 43.2502 9.31459 43.4743 10.5626 44.0642L10.4913 44.5361C10.4557 44.7956 10.2655 45.4681 10.0753 46.0462C9.88513 46.6125 9.58798 47.3557 9.42157 47.6979C9.24328 48.0282 8.8748 48.6535 8.60142 49.0782C8.32804 49.5029 7.88825 50.081 7.13942 50.9068L6.35493 50.5293C5.92703 50.3169 5.34461 49.9394 5.05934 49.6799C4.76219 49.4085 4.42937 48.9366 4.21542 48.4765C3.91827 47.804 3.88261 47.6153 3.91827 46.7776C3.95393 46.1288 4.04902 45.6687 4.22731 45.3029C4.36994 45.008 4.69087 44.5597 4.94048 44.3001C5.19009 44.0406 5.62988 43.7103 5.92703 43.5569Z" fill="#FFDACC"/>
<path d="M51.0588 43.6867C51.5105 43.4743 52.1048 43.2502 52.402 43.1912C52.6991 43.1322 53.1746 43.1086 53.4717 43.144C53.7689 43.1794 54.28 43.3091 54.6009 43.4271C54.9456 43.5451 55.4211 43.8518 55.7301 44.1468C56.0273 44.4299 56.3957 44.9254 56.5621 45.244C56.7761 45.6805 56.8712 46.0698 56.9068 46.7776C56.9425 47.6153 56.9068 47.804 56.6097 48.4765C56.3957 48.9366 56.0629 49.4085 55.7539 49.6799C55.4805 49.9394 54.8981 50.3169 53.6857 50.9068L53.1984 50.3759C52.9369 50.081 52.4971 49.5029 52.2237 49.0782C51.9503 48.6535 51.5818 48.0282 51.4035 47.6979C51.2371 47.3557 50.94 46.6125 50.7498 46.0462C50.5596 45.4681 50.3694 44.7956 50.2625 44.0642L51.0588 43.6867Z" fill="#FFDACC"/>
<path d="M20.6778 26.8515C20.8442 26.6509 21.2127 26.3678 21.5098 26.2262C21.8664 26.0374 22.2468 25.9548 22.6866 25.9548C23.1263 25.9548 23.5186 26.0492 23.8633 26.2262C24.1604 26.3678 24.5289 26.6509 24.6953 26.8515C24.8617 27.0638 25.0757 27.4295 25.147 27.6773C25.2302 27.9368 25.3015 28.2672 25.3015 28.4323C25.3015 28.5975 25.2064 28.8689 25.0638 29.0458C24.8855 29.2936 24.731 29.3761 24.41 29.3761C24.0891 29.3761 23.9346 29.2936 23.7563 29.0458C23.6137 28.8689 23.5067 28.6093 23.5186 28.4559C23.5186 28.3144 23.4116 28.0902 23.2809 27.9604C23.1501 27.8307 22.8886 27.7245 22.6866 27.7245C22.4845 27.7245 22.223 27.8307 22.0922 27.9604C21.9615 28.0902 21.8545 28.3144 21.8545 28.4559C21.8664 28.6093 21.7594 28.8689 21.6168 29.0458C21.4385 29.2936 21.2721 29.3761 20.9987 29.3761C20.761 29.3761 20.4995 29.27 20.3331 29.1048C20.1667 28.9514 20.0716 28.7037 20.0716 28.4913C20.0716 28.2908 20.1429 27.9368 20.2261 27.6773C20.2974 27.4295 20.5114 27.0638 20.6778 26.8515Z" fill="black"/>
<path d="M36.1774 26.8043C36.3675 26.5683 36.7479 26.2852 37.0094 26.1672C37.2828 26.0492 37.7701 25.9548 38.1386 25.9548C38.5071 25.9548 38.9944 26.0492 39.2678 26.1672C39.5293 26.2852 39.9096 26.5683 40.0998 26.8043C40.29 27.0402 40.5277 27.4295 40.599 27.6773C40.6822 27.9368 40.7535 28.279 40.7535 28.4559C40.7535 28.6447 40.6347 28.916 40.4564 29.0812C40.3019 29.2464 40.0285 29.3761 39.8621 29.3761C39.6957 29.3761 39.4342 29.2464 39.2678 29.0812C39.1014 28.916 38.9706 28.6565 38.9706 28.4913C38.9706 28.3262 38.8636 28.0902 38.7329 27.9604C38.6021 27.8307 38.3406 27.7245 38.1386 27.7245C37.9365 27.7245 37.675 27.8307 37.5443 27.9604C37.4135 28.0902 37.3065 28.3262 37.3065 28.4913C37.3065 28.6565 37.1758 28.916 37.0094 29.0812C36.8311 29.27 36.5934 29.3761 36.3557 29.3761C36.106 29.3761 35.9278 29.2818 35.7613 29.0458C35.6187 28.8689 35.5236 28.5975 35.5236 28.4323C35.5236 28.2672 35.5949 27.9368 35.6781 27.6773C35.7495 27.4295 35.9872 27.0402 36.1774 26.8043Z" fill="black"/>
<path d="M27.5955 27.5121C27.9046 27.3706 28.5108 27.2054 28.9506 27.1464C29.4022 27.0874 30.2937 27.0638 30.9474 27.0874C31.6012 27.1228 32.3976 27.2172 32.7304 27.3116C33.087 27.4059 33.5505 27.6655 33.8833 27.9486C34.3231 28.3144 34.5014 28.5857 34.644 29.0458C34.7867 29.4941 34.8223 29.9542 34.7867 30.6739C34.751 31.4643 34.6678 31.8301 34.3825 32.4435C34.1924 32.8683 33.7882 33.4699 33.503 33.7767C33.182 34.1306 32.6591 34.4963 32.1955 34.7205C31.5061 35.0626 31.3159 35.098 30.3531 35.098C29.3547 35.098 29.2358 35.0744 28.5227 34.6851C28.1066 34.4609 27.548 34.0362 27.2865 33.7413C27.0131 33.4463 26.6328 32.8683 26.4426 32.4435C26.1573 31.8301 26.0741 31.4761 26.0385 30.6739C26.0147 30.1194 26.0503 29.4469 26.1217 29.1638C26.193 28.8924 26.4307 28.4677 26.6446 28.22C26.8705 27.984 27.2984 27.6655 27.5955 27.5121Z" fill="black"/>
<path d="M18.4075 29.3289C18.5739 29.2228 18.9424 29.0694 19.2395 28.975C19.5367 28.8806 19.822 28.7981 19.8933 28.7863C19.9646 28.7863 20.1429 28.916 20.3093 29.0812C20.4995 29.27 20.7372 29.3761 20.963 29.3761C21.1651 29.3761 21.4266 29.27 21.5573 29.1402C21.7951 28.916 21.7951 28.916 22.3894 29.1874C22.7103 29.3289 23.162 29.6357 23.3878 29.8598C23.6018 30.084 23.8752 30.4261 23.9702 30.6149C24.0772 30.8037 24.1604 31.2638 24.1604 31.6177C24.1723 32.1132 24.0891 32.3963 23.8395 32.8328C23.6612 33.1396 23.2927 33.5525 23.0193 33.7413C22.7341 33.9418 22.2349 34.1896 21.9139 34.2958C21.4979 34.4255 21.0106 34.4609 20.3093 34.4373C19.5842 34.4019 19.1563 34.3193 18.7641 34.1306C18.4669 33.989 18.0509 33.6941 17.8251 33.4817C17.6111 33.2694 17.3259 32.8918 17.207 32.6559C17.0763 32.3963 16.9812 31.9598 16.9812 31.6177C16.9812 31.2756 17.0763 30.8508 17.207 30.5913C17.3378 30.3435 17.5874 30.0014 17.7775 29.8362C17.9558 29.6593 18.2411 29.4351 18.4075 29.3289Z" fill="#EDA1AB"/>
<path d="M39.8977 29.3761C40.0522 29.3761 40.29 29.2464 40.4326 29.093C40.6465 28.857 40.7773 28.8099 41.1101 28.857C41.3359 28.8924 41.7401 29.0104 42.0016 29.1284C42.2631 29.2464 42.6791 29.5177 42.9406 29.7419C43.1902 29.966 43.4992 30.3435 43.6181 30.5913C43.7488 30.839 43.8439 31.2756 43.8439 31.6177C43.8439 31.9598 43.7488 32.3845 43.6181 32.6559C43.4873 32.8918 43.214 33.2576 42.9881 33.4581C42.7742 33.6705 42.3582 33.9536 42.061 34.107C41.6806 34.2958 41.2527 34.3901 40.5752 34.4255C39.9096 34.4609 39.4342 34.4255 38.9706 34.284C38.614 34.1778 38.1029 33.9418 37.8414 33.7649C37.5799 33.5761 37.1996 33.175 37.0094 32.8564C36.7241 32.3963 36.6528 32.1486 36.6528 31.6295C36.6528 31.134 36.736 30.839 36.9618 30.4379C37.1401 30.143 37.4848 29.7655 37.7344 29.5885C37.9959 29.4115 38.3882 29.1874 38.614 29.093C38.9944 28.9396 39.0538 28.9396 39.3272 29.152C39.4936 29.2818 39.7432 29.3879 39.8977 29.3761Z" fill="#EDA1AB"/>
<path d="M28.2374 29.1755C28.4276 29.0694 28.8674 28.9396 29.2239 28.8924C29.5805 28.8452 30.365 28.8334 30.9474 28.857C31.5299 28.8924 32.1955 28.9986 32.4094 29.093C32.6115 29.1873 32.8492 29.3761 32.9205 29.5177C33.0038 29.671 33.0394 30.143 33.0156 30.6267C32.98 31.2991 32.8968 31.5705 32.6115 32.0306C32.4213 32.3491 32.0172 32.7738 31.7438 32.9626C31.2921 33.2811 31.1257 33.3283 30.4126 33.3283C29.6994 33.3283 29.533 33.2811 29.0813 32.9626C28.8079 32.7738 28.4157 32.3491 28.2136 32.0306C27.9521 31.6059 27.8452 31.2755 27.8095 30.7446C27.7857 30.3435 27.7976 29.8834 27.8452 29.6946C27.8808 29.5177 28.0591 29.2817 28.2374 29.1755Z" fill="white"/>
</svg>
