<svg width="51" height="51" viewBox="0 0 51 51" fill="none" xmlns="http://www.w3.org/2000/svg">
<path d="M40.8436 15.1685C41.32 12.4503 39.2281 9.96021 36.4686 9.96021H13.7106C10.9509 9.96021 8.85923 12.4503 9.33552 15.1685" stroke="#22C55E" stroke-width="4"/>
<path d="M36.5482 9.96016C36.6073 9.42041 36.6369 9.15048 36.6373 8.92756C36.6421 6.795 35.0357 5.00316 32.9152 4.77562C32.6936 4.75183 32.4221 4.75183 31.8792 4.75183H18.3004C17.7574 4.75183 17.4859 4.75183 17.2642 4.77562C15.1439 5.00316 13.5376 6.795 13.5422 8.92754C13.5427 9.15048 13.5722 9.42037 13.6313 9.96016" stroke="#22C55E" stroke-width="4"/>
<path d="M30.4675 28.9517C31.6309 29.673 31.6309 31.5398 30.4675 32.2611L23.4434 36.6155C22.3127 37.3163 20.9234 36.4042 20.9234 34.9609V26.2519C20.9234 24.8088 22.3127 23.8965 23.4434 24.5973L30.4675 28.9517Z" stroke="#22C55E" stroke-width="4"/>
<path d="M5.05568 29.3207C4.12645 22.7298 3.66185 19.4345 5.63653 17.3016C7.61122 15.1686 11.1267 15.1686 18.1575 15.1686H32.0225C39.0534 15.1686 42.5688 15.1686 44.5436 17.3016C46.5182 19.4345 46.0536 22.7298 45.1244 29.3207L44.2432 35.5707C43.5144 40.7392 43.1502 43.3234 41.2811 44.8711C39.4119 46.4186 36.655 46.4186 31.1413 46.4186H19.0387C13.5251 46.4186 10.7682 46.4186 8.89907 44.8711C7.02993 43.3234 6.66557 40.7392 5.93687 35.5707L5.05568 29.3207Z" stroke="#22C55E" stroke-width="4"/>
</svg>
